<?xml version="1.0" encoding="UTF-8" standalone="no"?>
<svg
   xmlns:dc="http://purl.org/dc/elements/1.1/"
   xmlns:cc="http://creativecommons.org/ns#"
   xmlns:rdf="http://www.w3.org/1999/02/22-rdf-syntax-ns#"
   xmlns:svg="http://www.w3.org/2000/svg"
   xmlns="http://www.w3.org/2000/svg"
   xmlns:sodipodi="http://sodipodi.sourceforge.net/DTD/sodipodi-0.dtd"
   xmlns:inkscape="http://www.inkscape.org/namespaces/inkscape"
   width="50.520187"
   height="18.013866"
   viewBox="0 0 50.520187 18.013865"
   version="1.1"
   id="svg12"
   sodipodi:docname="system.svg"
   inkscape:version="0.92.2 (5c3e80d, 2017-08-06)">
  <metadata
     id="metadata16">
    <rdf:RDF>
      <cc:Work
         rdf:about="">
        <dc:format>image/svg+xml</dc:format>
        <dc:type
           rdf:resource="http://purl.org/dc/dcmitype/StillImage" />
        <dc:title>system</dc:title>
      </cc:Work>
    </rdf:RDF>
  </metadata>
  <sodipodi:namedview
     pagecolor="#ffffff"
     bordercolor="#666666"
     borderopacity="1"
     objecttolerance="10"
     gridtolerance="10"
     guidetolerance="10"
     inkscape:pageopacity="0"
     inkscape:pageshadow="2"
     inkscape:window-width="1680"
     inkscape:window-height="987"
     id="namedview14"
     showgrid="false"
     inkscape:zoom="10.466667"
     inkscape:cx="-13.449252"
     inkscape:cy="9.0069339"
     inkscape:window-x="1672"
     inkscape:window-y="-8"
     inkscape:window-maximized="1"
     inkscape:current-layer="svg12"
     fit-margin-top="0"
     fit-margin-left="0"
     fit-margin-right="0"
     fit-margin-bottom="0" />
  <!-- Generator: Sketch 45 (43475) - http://www.bohemiancoding.com/sketch -->
  <title
     id="title2">system</title>
  <desc
     id="desc4">Created with Sketch.</desc>
  <path
     style="font-style:normal;font-variant:normal;font-weight:bold;font-stretch:normal;font-size:13.63675594px;line-height:1.25;font-family:'Century Gothic';-inkscape-font-specification:'Century Gothic, Bold';font-variant-ligatures:normal;font-variant-caps:normal;font-variant-numeric:normal;font-feature-settings:normal;text-align:start;letter-spacing:0px;word-spacing:0px;writing-mode:lr-tb;text-anchor:start;fill:#ffffff;fill-opacity:1;stroke:none;stroke-width:0.92977881"
     d="M 12.486328 3.9785156 C 11.536372 3.9785156 10.647929 4.2082609 9.8222656 4.6699219 C 9.0010417 5.1315829 8.3696861 5.7428759 7.9257812 6.5019531 C 7.4863155 7.2610304 7.265625 8.1288782 7.265625 9.1054688 C 7.265625 10.614745 7.7490844 11.8526 8.7167969 12.820312 C 9.6889484 13.783586 10.936391 14.265625 12.458984 14.265625 C 13.284647 14.265625 14.020401 14.130157 14.664062 13.859375 C 15.307724 13.584154 15.991279 13.092527 16.714844 12.386719 L 15.449219 11.068359 C 14.912094 11.601045 14.419047 11.969632 13.970703 12.173828 C 13.522359 12.373585 13.027892 12.474609 12.486328 12.474609 C 11.851544 12.474609 11.275228 12.329554 10.755859 12.041016 C 10.236491 11.752477 9.8348803 11.355661 9.5507812 10.849609 C 9.2666822 10.343558 9.1230469 9.7638682 9.1230469 9.1113281 C 9.1230469 8.174689 9.4428083 7.3872698 10.082031 6.7480469 C 10.725693 6.1088239 11.516486 5.7890625 12.453125 5.7890625 C 13.562887 5.7890625 14.561409 6.2567202 15.449219 7.1933594 L 16.753906 5.9492188 C 16.212342 5.3188739 15.566605 4.8320411 14.816406 4.4902344 C 14.070646 4.1484277 13.294235 3.9785156 12.486328 3.9785156 z M 28.328125 3.9785156 C 27.569048 3.9785156 26.929525 4.2226422 26.410156 4.7109375 C 25.895227 5.1947937 25.636719 5.7759038 25.636719 6.4550781 C 25.636719 6.9256172 25.792782 7.3980687 26.103516 7.8730469 C 26.414249 8.343586 27.102597 9.0147122 28.167969 9.8847656 C 28.727289 10.341988 29.087708 10.680391 29.251953 10.902344 C 29.416198 11.124296 29.5 11.346407 29.5 11.568359 C 29.5 11.812507 29.389388 12.028404 29.171875 12.214844 C 28.954362 12.401284 28.686799 12.494141 28.367188 12.494141 C 27.754599 12.494141 27.212727 12.060927 26.742188 11.195312 L 25.177734 12.140625 C 25.546175 12.873068 25.987024 13.410146 26.501953 13.751953 C 27.021322 14.09376 27.631194 14.265625 28.328125 14.265625 C 29.220374 14.265625 29.943166 14.004276 30.498047 13.480469 C 31.052928 12.956661 31.330078 12.291749 31.330078 11.488281 C 31.330078 11.07545 31.249649 10.695855 31.089844 10.349609 C 30.934477 9.9989246 30.668335 9.6337113 30.291016 9.2519531 C 30.140088 9.0965864 29.710248 8.7217856 29 8.1269531 C 28.240923 7.4832911 27.785693 7.0625056 27.634766 6.8671875 C 27.523789 6.7206989 27.46875 6.5665885 27.46875 6.4023438 C 27.46875 6.238099 27.545805 6.091623 27.701172 5.9628906 C 27.856539 5.8297192 28.056634 5.7617188 28.300781 5.7617188 C 28.802394 5.7617187 29.295441 6.1006553 29.779297 6.7753906 L 31.15625 5.5566406 C 30.64132 4.9573691 30.162655 4.5447508 29.71875 4.3183594 C 29.279284 4.0919679 28.81642 3.9785156 28.328125 3.9785156 z M 39.619141 3.9785156 C 38.718014 3.9785156 37.971786 4.2838957 37.376953 4.8964844 C 36.950805 5.3359501 36.690876 5.9170602 36.597656 6.640625 L 38.388672 6.640625 C 38.468575 6.3831602 38.616471 6.1754307 38.833984 6.015625 C 39.051498 5.8513802 39.294204 5.7695312 39.560547 5.7695312 C 39.862402 5.7695313 40.106529 5.8575943 40.292969 6.0351562 C 40.479409 6.2082791 40.572266 6.4289696 40.572266 6.6953125 C 40.572266 6.8995087 40.511012 7.0914365 40.386719 7.2734375 C 40.266864 7.4554385 40.094999 7.6004941 39.873047 7.7070312 C 39.655534 7.8091294 39.323344 7.876597 38.875 7.9121094 L 38.875 9.5117188 C 39.603004 9.5205968 40.158725 9.6780807 40.544922 9.984375 C 40.931119 10.290669 41.125 10.66547 41.125 11.109375 C 41.125 11.513328 40.979944 11.855106 40.691406 12.134766 C 40.407307 12.414426 40.048308 12.554688 39.613281 12.554688 C 39.196011 12.554688 38.84944 12.431648 38.574219 12.1875 C 38.303437 11.938913 38.128731 11.562692 38.048828 11.056641 L 36.205078 11.056641 C 36.262786 12.046548 36.590182 12.829174 37.189453 13.40625 C 37.788725 13.978887 38.563716 14.265625 39.513672 14.265625 C 40.516897 14.265625 41.342133 13.961665 41.990234 13.353516 C 42.638335 12.740927 42.962891 11.994166 42.962891 11.115234 C 42.962891 10.515963 42.794399 9.9980595 42.457031 9.5585938 C 42.124103 9.1146889 41.659286 8.8025619 41.064453 8.625 C 41.517236 8.4030476 41.862387 8.1134692 42.097656 7.7539062 C 42.337365 7.3943433 42.457031 6.9955736 42.457031 6.5605469 C 42.457031 5.8591773 42.182722 5.2546312 41.636719 4.7441406 C 41.095155 4.2336501 40.422608 3.9785156 39.619141 3.9785156 z M 18.373047 4.2246094 L 18.373047 14.019531 L 20.236328 14.019531 L 20.236328 9.8710938 C 21.186284 9.8710938 21.841609 9.818895 22.201172 9.7167969 C 22.813761 9.5392349 23.29722 9.2242673 23.652344 8.7714844 C 24.011907 8.3187015 24.191406 7.7519728 24.191406 7.0683594 C 24.191406 6.4513317 24.054518 5.9218876 23.779297 5.4824219 C 23.508515 5.0385171 23.135134 4.7187556 22.660156 4.5234375 C 22.189617 4.3236803 21.41942 4.2246094 20.349609 4.2246094 L 18.373047 4.2246094 z M 20.236328 6.0488281 L 20.763672 6.0488281 C 21.340748 6.0488281 21.736144 6.1134551 21.949219 6.2421875 C 22.242196 6.4153104 22.388672 6.6910403 22.388672 7.0683594 C 22.388672 7.2858727 22.335053 7.4715864 22.228516 7.6269531 C 22.126418 7.7778808 21.984735 7.8865393 21.802734 7.953125 C 21.620733 8.0197107 21.296178 8.0527344 20.830078 8.0527344 L 20.236328 8.0527344 L 20.236328 6.0488281 z "
     id="text3711" />
  <defs
     id="defs6" />
  <g
     style="fill:none;fill-rule:evenodd;stroke:#867740;stroke-width:1;stroke-linecap:round"
     id="system"
     transform="translate(0.00166959,0.00693327)">
    <path
       inkscape:connector-curvature="0"
       id="Shape"
       d="m 0.5,17.5 4,-17" />
  </g>
</svg>
