<?xml version="1.0" encoding="UTF-8" standalone="no"?>
<svg
   xmlns:dc="http://purl.org/dc/elements/1.1/"
   xmlns:cc="http://creativecommons.org/ns#"
   xmlns:rdf="http://www.w3.org/1999/02/22-rdf-syntax-ns#"
   xmlns:svg="http://www.w3.org/2000/svg"
   xmlns="http://www.w3.org/2000/svg"
   xmlns:sodipodi="http://sodipodi.sourceforge.net/DTD/sodipodi-0.dtd"
   xmlns:inkscape="http://www.inkscape.org/namespaces/inkscape"
   width="83px"
   height="18px"
   viewBox="0 0 83 18"
   version="1.1"
   id="svg12"
   sodipodi:docname="system.svg"
   inkscape:version="0.92.2 (5c3e80d, 2017-08-06)">
  <metadata
     id="metadata16">
    <rdf:RDF>
      <cc:Work
         rdf:about="">
        <dc:format>image/svg+xml</dc:format>
        <dc:type
           rdf:resource="http://purl.org/dc/dcmitype/StillImage" />
        <dc:title>system</dc:title>
      </cc:Work>
    </rdf:RDF>
  </metadata>
  <sodipodi:namedview
     pagecolor="#ffffff"
     bordercolor="#666666"
     borderopacity="1"
     objecttolerance="10"
     gridtolerance="10"
     guidetolerance="10"
     inkscape:pageopacity="0"
     inkscape:pageshadow="2"
     inkscape:window-width="1680"
     inkscape:window-height="987"
     id="namedview14"
     showgrid="false"
     showguides="true"
     inkscape:guide-bbox="true"
     inkscape:zoom="5.3501573"
     inkscape:cx="30.853889"
     inkscape:cy="21.235548"
     inkscape:window-x="-8"
     inkscape:window-y="-8"
     inkscape:window-maximized="1"
     inkscape:current-layer="svg12">
    <sodipodi:guide
       position="1.0573248,3.7006369"
       orientation="0,1"
       id="guide3713"
       inkscape:locked="false" />
  </sodipodi:namedview>
  <!-- Generator: Sketch 45 (43475) - http://www.bohemiancoding.com/sketch -->
  <title
     id="title2">system</title>
  <desc
     id="desc4">Created with Sketch.</desc>
  <defs
     id="defs6" />
  <g
     style="fill:none;fill-rule:evenodd;stroke:#867740;stroke-width:1;stroke-linecap:round"
     id="system">
    <path
       inkscape:connector-curvature="0"
       id="Shape"
       d="m 0.5,17.5 4,-17" />
  </g>
  <path
     style="fill:#ffffff;stroke-width:0.05928875"
     d="m 34.840867,18.362082 c -0.130436,-0.07939 -0.303855,-0.244314 -0.385376,-0.366502 -0.130554,-0.195677 -0.146967,-0.279116 -0.137684,-0.69996 0.01314,-0.596285 0.28573,-1.806605 0.647327,-2.874301 l 0.26948,-0.79571 -0.10794,-0.271492 c -0.238188,-0.599083 -0.08808,-1.648843 0.348256,-2.435531 0.371485,-0.669759 1.052782,-1.4822146 1.242936,-1.4822146 0.04194,0 0.05518,0.1131264 0.0378,0.3227323 -0.02705,0.3262413 -0.102339,0.5000393 -0.659003,1.5213943 -0.284015,0.521096 -0.46163,1.137798 -0.357646,1.241785 0.03524,0.03523 0.259966,-0.196587 0.604712,-0.623767 0.681965,-0.845032 1.226524,-1.386299 1.736342,-1.725852 0.61805,-0.4116435 0.937405,-0.3287462 1.298292,0.337002 0.195613,0.360859 0.205598,0.408074 0.205598,0.972163 0,0.563434 -0.01112,0.616161 -0.223661,1.061332 -0.175373,0.367298 -0.32898,0.573307 -0.711465,0.954168 -0.618171,0.615538 -1.165156,0.905285 -1.855083,0.982658 -0.253688,0.02842 -0.480936,0.07252 -0.504992,0.09794 -0.138015,0.145815 -0.79966,2.596591 -0.944849,3.499779 -0.079,0.491447 -0.122467,0.516019 -0.50305,0.284377 z m 2.930361,-5.322661 c 0.686573,-0.327955 1.10088,-0.887937 1.164576,-1.574069 0.0335,-0.360893 -0.05688,-0.635697 -0.209093,-0.635697 -0.137255,0 -1.01434,1.0956 -1.410538,1.761956 -0.203806,0.342778 -0.370556,0.641382 -0.370556,0.663569 0,0.08049 0.453501,-0.038 0.825611,-0.215759 z m -26.497637,2.664256 c -0.148715,-0.07323 -0.301586,-0.444915 -0.383038,-0.93132 -0.03169,-0.18923 -0.08074,-0.232625 -0.556794,-0.492604 C 9.6584793,13.910968 8.8957496,13.336351 8.4523421,12.862344 7.5035648,11.848101 7.4786681,11.442202 8.3302912,10.872601 c 0.501959,-0.335733 1.1676436,-0.59293 2.0335268,-0.785689 l 0.602093,-0.1340374 0.03964,-0.5398733 c 0.07219,-0.983286 0.242046,-1.8141679 0.389474,-1.9052801 0.09506,-0.058755 0.356759,0.1624436 0.48629,0.4110228 0.09849,0.1889921 0.140499,0.4271818 0.189273,1.0729643 l 0.06269,0.8300423 0.859687,0.038336 c 0.990838,0.044215 1.573102,0.1612624 2.176066,0.4375264 0.821389,0.376338 1.122764,0.738791 1.07009,1.286965 -0.0448,0.466266 -0.505876,0.875525 -0.986379,0.875525 -0.129932,0 -0.310262,-0.02815 -0.400735,-0.06252 l -0.164494,-0.06252 0.314063,-0.288735 c 0.198318,-0.182324 0.30663,-0.32732 0.293896,-0.393443 -0.04005,-0.207934 -1.238994,-0.549007 -2.272862,-0.646569 -0.228261,-0.02154 -0.49654,-0.04818 -0.59617,-0.05922 -0.346603,-0.0384 -0.34181,-0.06299 -0.310935,1.596031 0.01556,0.835137 0.04379,1.533971 0.0628,1.552965 0.102611,0.102601 1.314074,0.210108 2.030085,0.180136 1.911487,-0.08 3.388397,-0.836447 3.804951,-1.948821 0.134479,-0.359121 0.131329,-1.232645 -0.0058,-1.616274 C 17.70797,9.873347 16.760724,8.7027678 15.811798,7.9977285 14.410742,6.9567718 12.292514,6.0156644 10.527301,5.649874 9.5355598,5.4443658 8.8276645,5.3857965 7.7763079,5.4222652 6.4797895,5.4672062 5.9157401,5.6366823 6.5516543,5.790164 6.738008,5.835171 6.7972965,5.878077 6.7972965,5.968033 c 0,0.1043969 -0.0455,0.1207208 -0.3804698,0.1364834 -0.4409956,0.020752 -0.7163716,-0.069388 -0.7163716,-0.2345151 0,-0.1809094 0.1707206,-0.5401239 0.3413875,-0.7182969 0.4390427,-0.4583701 2.8027512,-0.7421489 4.3424224,-0.5213409 1.17503,0.1685172 2.778348,0.6821057 3.942702,1.2629544 0.682603,0.3405242 1.891061,1.0659654 2.356387,1.414546 1.554525,1.1645193 2.774468,3.0401181 2.771213,4.2605901 -0.0022,0.84297 -0.334683,1.589387 -1.004466,2.255347 -0.615491,0.611978 -1.36136,1.007014 -2.433406,1.288796 -0.794232,0.20876 -2.293018,0.251103 -3.217633,0.0909 l -0.638572,-0.110642 -0.03557,0.222428 c -0.01957,0.122339 -0.07903,0.260125 -0.132182,0.306203 -0.141049,0.122307 -0.544163,0.168406 -0.719146,0.08224 z m -0.452096,-2.220849 c 0.01795,-0.12228 0.05022,-0.722581 0.07172,-1.333996 l 0.03908,-1.111666 H 10.77989 c -0.310753,0 -1.5113995,0.179978 -1.951445,0.292523 -0.5332358,0.136377 -0.7564469,0.265902 -0.7564469,0.438939 0,0.177221 0.8912744,1.034242 1.3636409,1.311239 0.3408356,0.199872 1.208635,0.610121 1.313964,0.621171 0.02159,0.002 0.05395,-0.09594 0.0719,-0.21821 z m 20.439822,0.956651 c -0.252134,-0.20365 -0.480392,-0.686177 -0.481149,-1.017118 -2.95e-4,-0.140713 0.06837,-0.417222 0.154641,-0.622532 0.142504,-0.339115 0.184905,-0.671927 0.13015,-1.021552 -0.01368,-0.08733 0.04143,-0.147877 0.209043,-0.229736 0.168131,-0.08211 0.257287,-0.180388 0.341161,-0.376061 0.213902,-0.499016 0.211316,-0.515313 -0.09482,-0.597192 -0.291306,-0.07791 -0.562891,-0.315788 -0.562891,-0.493015 0,-0.07366 0.07006,-0.1271981 0.222333,-0.1699201 0.356143,-0.099913 2.056085,-0.2981194 2.556827,-0.2981194 0.396465,0 0.486006,0.020155 0.660084,0.1485905 0.254989,0.1881265 0.428953,0.460367 0.404117,0.632405 -0.02737,0.189594 -0.364025,0.271453 -1.320395,0.321062 l -0.792853,0.04111 -0.0731,0.273277 c -0.04021,0.150302 -0.07598,0.2989 -0.07948,0.330213 -0.0037,0.03252 0.249893,0.061 0.590709,0.06634 0.748625,0.01177 0.855493,0.06213 0.855493,0.402888 0,0.349591 -0.134947,0.405735 -1.014479,0.422092 -0.378614,0.007 -0.71806,0.03112 -0.754323,0.05354 -0.06064,0.03748 -0.306305,0.741839 -0.306305,0.878256 0,0.06927 0.208927,0.0495 1.067197,-0.101068 0.736226,-0.129141 1.016954,-0.09849 1.117419,0.122008 0.127671,0.280211 0.08219,0.398611 -0.244656,0.636986 -0.170235,0.124158 -0.532008,0.336466 -0.803939,0.471807 -0.45275,0.225321 -0.540199,0.247799 -1.037554,0.266695 -0.517644,0.0197 -0.552522,0.01303 -0.743224,-0.140984 z m 31.976058,-0.370918 c -0.521844,-0.455423 -1.014722,-0.988435 -1.891678,-2.04571 l -0.58397,-0.704047 -0.109797,0.140804 c -0.164923,0.21149 -1.023056,1.587069 -1.168403,1.872937 l -0.127069,0.249915 0.301646,0.03998 c 0.165903,0.022 0.310484,0.06963 0.321289,0.105817 0.0108,0.03622 0.03407,0.132591 0.0517,0.214212 l 0.03205,0.1484 -1.33142,-1.79e-4 c -0.732281,-1.19e-4 -1.331436,-0.0078 -1.331452,-0.01692 -1.7e-5,-0.0092 0.03719,-0.105804 0.08268,-0.214668 0.07115,-0.170262 0.11934,-0.203433 0.344727,-0.237232 0.35804,-0.05366 0.704486,-0.412576 1.951447,-2.0215 0.277999,-0.358699 0.524938,-0.685344 0.54875,-0.725877 0.04196,-0.07141 -1.616994,-2.2612563 -1.927568,-2.5444141 C 58.323093,8.259689 58.140193,8.1788671 57.99385,8.1504813 57.749532,8.1030944 57.725044,8.0820441 57.694352,7.8930922 l -0.03342,-0.2057856 h 1.560055 c 1.281249,0 1.55459,0.014209 1.529487,0.079619 -0.01682,0.043818 -0.04598,0.1410435 -0.06482,0.216109 -0.02871,0.1143761 -0.08626,0.1429932 -0.355147,0.1765868 l -0.32089,0.040118 0.537243,0.7951336 c 0.295486,0.4373262 0.560397,0.8094421 0.588692,0.8269296 0.06052,0.037402 0.19697,-0.1374413 0.763341,-0.9780982 0.447433,-0.6641226 0.450144,-0.6971083 0.0581,-0.7075373 -0.16186,-0.00397 -0.228672,-0.097873 -0.228683,-0.3202807 -6e-6,-0.1276007 0.0088,-0.1285524 1.188458,-0.1285524 h 1.188465 l -0.01751,0.2064461 c -0.01666,0.1964075 -0.03229,0.2097114 -0.321505,0.2736276 -0.167198,0.036945 -0.334109,0.085791 -0.370915,0.1085402 -0.153812,0.095065 -1.84608,2.0796001 -1.823502,2.1384411 0.02946,0.07675 1.773332,2.48671 2.389891,3.302709 0.239038,0.316361 0.434614,0.587715 0.434614,0.603001 0,0.01526 -0.07337,0.04177 -0.163044,0.05888 -0.08968,0.01711 -0.244342,0.04686 -0.34371,0.06609 -0.160015,0.031 -0.234565,-0.01209 -0.652176,-0.376524 z m -43.067167,0.232797 c -0.176617,-0.176621 -0.211035,-0.466242 -0.208238,-1.752327 0.0034,-1.520569 0.11035,-2.531422 0.290201,-2.7405059 0.182065,-0.2116668 0.367233,-0.1400846 0.517726,0.2001289 0.138732,0.313625 0.208338,1.082707 0.265248,2.930798 l 0.03942,1.279748 -0.140931,0.09872 c -0.197588,0.138401 -0.617569,0.129286 -0.763415,-0.01659 z m 3.227931,-0.002 c -0.749739,-0.166154 -1.329759,-0.542141 -1.576582,-1.02199 -0.142567,-0.277164 -0.141698,-0.365435 0.0066,-0.671816 0.177884,-0.367463 0.452736,-0.471852 1.242326,-0.471852 0.953243,0 1.730176,0.213452 1.769064,0.486028 0.02482,0.173944 -0.257861,0.317749 -0.704126,0.358217 -0.282096,0.02557 -0.428049,-6.61e-4 -0.853173,-0.154718 -0.531259,-0.19223 -0.846889,-0.229777 -1.044159,-0.124197 -0.144743,0.07746 -0.148106,0.305014 -0.0064,0.433256 0.442081,0.400078 2.793365,0.06358 3.113493,-0.445562 0.04434,-0.07054 0.04184,-0.144143 -0.0087,-0.255055 -0.137563,-0.301922 -0.784567,-0.473063 -2.234809,-0.591147 -1.207051,-0.09829 -1.419235,-0.152193 -1.543309,-0.392127 -0.263984,-0.510489 0.05921,-1.137488 0.744947,-1.445231 0.70216,-0.3151124 1.197583,-0.4100249 2.162004,-0.4141892 0.776583,-0.00325 0.947582,0.014077 1.348818,0.1377657 0.469132,0.1445858 0.519389,0.1980801 0.398441,0.4240685 -0.131547,0.245804 -0.408469,0.303409 -2.132638,0.443646 -0.959433,0.07804 -1.848136,0.278061 -1.73556,0.39064 0.112662,0.112664 0.708233,0.228977 1.498406,0.292636 0.440219,0.03549 0.929877,0.08899 1.088126,0.118935 0.416034,0.07874 0.859165,0.3402 1.039879,0.61355 0.136399,0.206328 0.154613,0.293719 0.154613,0.741924 0,0.403562 -0.02473,0.550131 -0.120227,0.712686 -0.154601,0.263159 -0.585185,0.571345 -1.003814,0.718482 -0.375968,0.13214 -1.246354,0.195145 -1.603242,0.116055 z m 3.302487,-0.08959 c -0.278075,-0.234021 -0.34138,-0.611013 -0.255509,-1.52164 0.151262,-1.604086 0.53216,-2.7777989 0.901461,-2.7777989 0.057,0 0.227602,0.1400659 0.379106,0.3112649 0.255607,0.28883 0.458951,0.581715 1.35895,1.957361 0.195483,0.298794 0.366772,0.503026 0.40307,0.480596 0.131542,-0.0813 -0.0072,-1.114483 -0.309934,-2.30859 -0.318674,-1.2568418 -0.343218,-1.433924 -0.206031,-1.486565 0.319989,-0.1227894 1.103298,1.0346579 1.392089,2.05701 0.06956,0.24628 0.140022,0.716764 0.159334,1.064028 0.05625,1.011271 -0.186187,1.698385 -0.689899,1.955359 -0.339595,0.173249 -0.447522,0.151704 -0.775123,-0.154732 -0.337569,-0.315752 -0.606948,-0.72636 -1.093788,-1.667229 -0.189823,-0.366848 -0.366539,-0.666997 -0.392702,-0.666997 -0.06919,0 -0.0983,0.256351 -0.168322,1.482222 -0.0519,0.90863 -0.08146,1.122274 -0.172274,1.245057 -0.150072,0.202925 -0.314385,0.212401 -0.530428,0.0306 z M 78.50703,14.099803 c -0.384162,-0.303077 -1.564106,-1.515592 -2.25634,-2.31861 -0.512391,-0.594384 -0.590405,-0.636087 -0.989716,-0.529073 -0.132348,0.0355 -0.1334,0.04454 -0.1334,1.151822 0,0.648468 0.02388,1.130794 0.05689,1.151216 0.03124,0.01937 0.232238,0.05154 0.446573,0.07154 0.427579,0.03992 0.415068,0.03231 0.469306,0.28569 l 0.03804,0.177862 h -1.688595 -1.688591 l 0.032,-0.148221 c 0.05942,-0.275179 0.07728,-0.296441 0.249115,-0.296441 0.0943,0 0.29132,-0.01646 0.437809,-0.03648 l 0.266351,-0.03648 0.04183,-1.49511 c 0.023,-0.82231 0.023,-2.030727 -4.6e-5,-2.6853779 l -0.0419,-1.1902812 -0.459712,-0.040713 -0.459717,-0.040712 -0.02254,-0.1931955 -0.02254,-0.1931887 1.069105,-0.03787 c 1.114353,-0.039522 2.838815,0.034169 3.283835,0.140257 1.231906,0.293699 1.513032,1.3177239 0.631045,2.2986963 -0.141565,0.157468 -0.364706,0.360669 -0.495864,0.451557 l -0.238453,0.165252 0.328872,0.513034 c 0.473166,0.738116 1.148415,1.665609 1.722739,2.366253 0.315858,0.385327 0.469985,0.617099 0.420683,0.632571 -0.04272,0.01342 -0.211211,0.03992 -0.374255,0.05888 -0.282048,0.03278 -0.312283,0.02194 -0.622533,-0.22283 z m -2.373847,-3.615409 c 0.515191,-0.253661 0.743406,-0.6013506 0.743406,-1.132591 0,-0.2858009 -0.02954,-0.4018096 -0.142772,-0.560572 C 76.549166,8.5323742 75.983581,8.2691495 75.498131,8.2161714 l -0.370557,-0.040447 v 1.2844068 1.2844068 l 0.311262,-0.03575 c 0.171193,-0.0197 0.483653,-0.120635 0.694347,-0.22437 z M 46.966235,14.00128 c 0.0027,-0.302693 0.05357,-0.341343 0.504679,-0.383614 l 0.435768,-0.04084 0.03742,-0.306547 c 0.04391,-0.359678 0.01443,-4.9954291 -0.03204,-5.0418179 -0.01739,-0.017382 -0.21749,-0.050163 -0.444664,-0.072977 -0.443104,-0.044478 -0.499669,-0.082275 -0.501078,-0.3350577 l -9.84e-4,-0.1630449 h 1.327715 c 2.142225,0 3.023998,0.1404882 3.513934,0.5598583 0.31979,0.2737265 0.452693,0.5656875 0.446797,0.9815156 -0.01586,1.1190816 -0.922755,1.9215436 -2.575985,2.2793646 -0.156242,0.03383 -0.163045,0.02557 -0.163045,-0.198232 0,-0.227113 0.0081,-0.23618 0.292164,-0.330557 0.446318,-0.148241 0.739912,-0.392128 0.923307,-0.766973 0.140622,-0.2874201 0.158407,-0.385234 0.1392,-0.7655965 -0.0373,-0.7385478 -0.398646,-1.1029439 -1.18385,-1.1938115 -0.312956,-0.036217 -0.335352,-0.03027 -0.369744,0.098137 -0.0474,0.1769506 -0.04955,4.838081 -0.0023,5.074089 l 0.03589,0.179482 0.525297,0.04157 c 0.558406,0.04421 0.523562,0.02266 0.622332,0.385044 0.02115,0.07761 -0.202065,0.08893 -1.753712,0.08893 -1.541232,0 -1.777846,-0.01183 -1.777152,-0.08893 z m 6.225302,0 c 0.0027,-0.298443 0.05427,-0.338316 0.489663,-0.378777 0.231861,-0.02154 0.436468,-0.05406 0.454681,-0.07225 0.04295,-0.04289 0.07728,-5.0522405 0.03579,-5.2198127 C 54.144478,8.2206331 54.08246,8.1973229 53.72082,8.1610062 53.34862,8.1236043 53.295279,8.1025215 53.246117,7.973229 53.134167,7.6787763 53.087033,7.6870575 54.876038,7.6870575 h 1.68528 L 56.52759,7.86492 c -0.01855,0.097827 -0.04509,0.191206 -0.05899,0.2075106 -0.0139,0.016324 -0.216832,0.05631 -0.45097,0.088931 l -0.425707,0.059283 -0.03714,1.007911 c -0.02043,0.554346 -0.02287,1.7585654 -0.0055,2.6760394 l 0.0317,1.668141 0.265687,0.03641 c 0.146128,0.02002 0.34284,0.03641 0.437139,0.03641 0.171835,0 0.189711,0.02128 0.249112,0.296443 l 0.032,0.148221 h -1.687135 c -1.460512,0 -1.687025,-0.01197 -1.68632,-0.08893 z M 64.693669,13.942 c 0.0015,-0.234614 0.06423,-0.27945 0.454301,-0.324285 l 0.36628,-0.04211 0.296005,-0.72096 C 66.08431,12.187148 67.034348,9.7083671 67.419237,8.6566053 L 67.58514,8.2032582 67.406244,8.1675033 c -0.0984,-0.019695 -0.24226,-0.035754 -0.31971,-0.035754 -0.12319,0 -0.140811,-0.027824 -0.1408,-0.2223348 l 1.9e-5,-0.2223281 h 1.514555 1.514553 l -0.01752,0.207015 c -0.01104,0.1300659 -0.05057,0.2112447 -0.106459,0.2183824 -0.04891,0.00595 -0.187716,0.027494 -0.308456,0.047122 l -0.219514,0.035755 0.358905,1.0502162 c 0.483848,1.415802 0.992459,2.773667 1.357602,3.624438 l 0.301882,0.703372 0.385108,0.04124 c 0.211807,0.02267 0.394493,0.07228 0.405973,0.110219 0.01143,0.03794 0.03523,0.135683 0.05287,0.217206 l 0.03199,0.148221 h -1.658948 -1.658948 l 0.03806,-0.177863 c 0.05412,-0.25269 0.04329,-0.24571 0.44734,-0.287948 0.202177,-0.02115 0.379167,-0.04997 0.39331,-0.06411 0.0312,-0.0312 -0.147455,-0.583764 -0.507216,-1.56888 l -0.268488,-0.735188 -0.918995,0.03794 c -0.505442,0.02089 -0.928484,0.04739 -0.940094,0.05902 -0.04681,0.0468 -0.565673,2.181189 -0.537171,2.209688 0.01689,0.01685 0.17806,0.04594 0.358162,0.06451 0.268121,0.02769 0.333557,0.05657 0.361164,0.159402 0.08471,0.315637 0.136761,0.303475 -1.298651,0.303475 h -1.333996 l 7.93e-4,-0.148221 z m 4.090006,-3.256855 c 0,-0.08896 -0.664936,-2.0268464 -0.687661,-2.0041178 -0.01137,0.011368 -0.16589,0.4193432 -0.343382,0.9066209 -0.177493,0.4872779 -0.340662,0.9314319 -0.362605,0.9870139 -0.035,0.08865 0.01352,0.103577 0.395254,0.12162 0.918907,0.04343 0.998394,0.04256 0.998394,-0.01117 z m -25.704367,0.858352 c -0.279936,-0.279933 -0.123047,-0.805808 0.26589,-0.891236 0.360456,-0.07917 0.712862,0.284731 0.62289,0.643211 -0.09442,0.376207 -0.615251,0.521553 -0.88878,0.248025 z M 19.251289,9.0078675 c -0.05188,-0.074068 -0.09229,-0.2542829 -0.09229,-0.4115252 0,-0.153865 -0.02945,-0.2979552 -0.06546,-0.320208 -0.128982,-0.079719 -0.287687,-0.5352462 -0.288967,-0.829408 -0.0018,-0.4167396 0.219778,-0.8332478 0.660251,-1.241052 0.656404,-0.6077144 1.244828,-0.861072 2.02082,-0.8701065 0.545704,-0.00661 0.835296,0.083816 0.996569,0.3103011 0.0713,0.1001265 0.178364,0.1740094 0.252973,0.1745711 0.07115,4.891e-4 0.236083,0.061332 0.366518,0.1351615 0.676156,0.3825841 0.364482,1.3789696 -0.689255,2.2034604 -0.78955,0.6177799 -1.456578,0.8264669 -2.146769,0.671637 L 19.8695,8.7418269 19.74657,8.9407325 c -0.146103,0.2363987 -0.356719,0.2649503 -0.495274,0.067136 z M 21.541636,7.895989 c 0.706813,-0.2183098 1.214861,-0.6641489 1.275967,-1.1197232 0.02728,-0.2034726 0.01153,-0.2463849 -0.12291,-0.3344637 -0.134157,-0.087907 -0.192901,-0.091766 -0.451606,-0.029741 -0.163562,0.039258 -0.453405,0.1721853 -0.644095,0.2954308 -0.374816,0.2422542 -0.983018,0.8351643 -1.154513,1.1254798 l -0.106414,0.1801425 h 0.412127 c 0.242969,0 0.56782,-0.048113 0.791444,-0.1171585 z M 19.765481,7.2576748 c 0.13926,-0.1546383 0.409977,-0.4472205 0.601595,-0.6501841 0.323065,-0.3421896 0.33552,-0.3653278 0.171307,-0.3182318 -0.367852,0.1055 -0.838606,0.4747471 -0.997852,0.7826953 -0.08041,0.1554909 -0.118207,0.4668825 -0.05668,0.4668825 0.01563,0 0.142363,-0.1265236 0.281623,-0.2811619 z"
     id="path3006"
     inkscape:connector-curvature="0" />
</svg>
