<?xml version="1.0" encoding="UTF-8" standalone="no"?>
<svg
   xmlns:dc="http://purl.org/dc/elements/1.1/"
   xmlns:cc="http://creativecommons.org/ns#"
   xmlns:rdf="http://www.w3.org/1999/02/22-rdf-syntax-ns#"
   xmlns:svg="http://www.w3.org/2000/svg"
   xmlns="http://www.w3.org/2000/svg"
   xmlns:sodipodi="http://sodipodi.sourceforge.net/DTD/sodipodi-0.dtd"
   xmlns:inkscape="http://www.inkscape.org/namespaces/inkscape"
   width="83px"
   height="18px"
   viewBox="0 0 83 18"
   version="1.1"
   id="svg12"
   sodipodi:docname="system.svg"
   inkscape:version="0.92.2 (5c3e80d, 2017-08-06)">
  <metadata
     id="metadata16">
    <rdf:RDF>
      <cc:Work
         rdf:about="">
        <dc:format>image/svg+xml</dc:format>
        <dc:type
           rdf:resource="http://purl.org/dc/dcmitype/StillImage" />
        <dc:title>system</dc:title>
      </cc:Work>
    </rdf:RDF>
  </metadata>
  <sodipodi:namedview
     pagecolor="#ffffff"
     bordercolor="#666666"
     borderopacity="1"
     objecttolerance="10"
     gridtolerance="10"
     guidetolerance="10"
     inkscape:pageopacity="0"
     inkscape:pageshadow="2"
     inkscape:window-width="1680"
     inkscape:window-height="987"
     id="namedview14"
     showgrid="false"
     showguides="true"
     inkscape:guide-bbox="true"
     inkscape:zoom="5.3501573"
     inkscape:cx="41.781731"
     inkscape:cy="23.743815"
     inkscape:window-x="1672"
     inkscape:window-y="-8"
     inkscape:window-maximized="1"
     inkscape:current-layer="svg12">
    <sodipodi:guide
       position="1.0573248,3.7006369"
       orientation="0,1"
       id="guide3713"
       inkscape:locked="false" />
  </sodipodi:namedview>
  <!-- Generator: Sketch 45 (43475) - http://www.bohemiancoding.com/sketch -->
  <title
     id="title2">system</title>
  <desc
     id="desc4">Created with Sketch.</desc>
  <defs
     id="defs6">
    <linearGradient
       gradientTransform="translate(-328.19811,-126.63517)"
       x1="17"
       y1="128"
       x2="767"
       y2="128"
       id="gradient"
       gradientUnits="userSpaceOnUse">
      <stop
         style="stop-color:#f090a7;stop-opacity:1"
         offset="0"
         id="stop2" />
      <stop
         style="stop-color:#ef7b75;stop-opacity:1"
         offset="0.14947076"
         id="stop4" />
      <stop
         style="stop-color:#ee6e5e;stop-opacity:1"
         offset="0.25638369"
         id="stop6" />
      <stop
         style="stop-color:#fce72c;stop-opacity:1"
         offset="0.58937144"
         id="stop8" />
      <stop
         style="stop-color:#acdee4;stop-opacity:1"
         offset="0.81312746"
         id="stop10" />
      <stop
         style="stop-color:#a3ddf2;stop-opacity:1"
         offset="1"
         id="stop12" />
    </linearGradient>
  </defs>
  <g
     style="fill:none;fill-rule:evenodd;stroke:#867740;stroke-width:1;stroke-linecap:round"
     id="system">
    <path
       inkscape:connector-curvature="0"
       id="Shape"
       d="m 0.5,17.5 4,-17" />
  </g>
  <path
     style="font-style:normal;font-variant:normal;font-weight:bold;font-stretch:normal;font-size:13.63675594px;line-height:1.25;font-family:'Century Gothic';-inkscape-font-specification:'Century Gothic, Bold';font-variant-ligatures:normal;font-variant-caps:normal;font-variant-numeric:normal;font-feature-settings:normal;text-align:start;letter-spacing:0px;word-spacing:0px;writing-mode:lr-tb;text-anchor:start;fill:#ffffff;fill-opacity:1;stroke:none;stroke-width:0.92977881;"
     d="M 9.6503906 3.9199219 C 8.8913134 3.9199219 8.2517905 4.1640485 7.7324219 4.6523438 C 7.2174923 5.1362 6.9589844 5.71731 6.9589844 6.3964844 C 6.9589844 6.8670235 7.1150479 7.339475 7.4257812 7.8144531 C 7.7365146 8.2849922 8.4248628 8.9561184 9.4902344 9.8261719 C 10.049554 10.283394 10.409974 10.621798 10.574219 10.84375 C 10.738464 11.065702 10.822266 11.287813 10.822266 11.509766 C 10.822266 11.753913 10.713607 11.96981 10.496094 12.15625 C 10.27858 12.34269 10.009065 12.435547 9.6894531 12.435547 C 9.0768645 12.435547 8.5349922 12.002333 8.0644531 11.136719 L 6.5 12.082031 C 6.868441 12.814474 7.3092892 13.351553 7.8242188 13.693359 C 8.3435874 14.035166 8.9534601 14.207031 9.6503906 14.207031 C 10.542639 14.207031 11.265431 13.94373 11.820312 13.419922 C 12.375194 12.896114 12.652344 12.233155 12.652344 11.429688 C 12.652344 11.016856 12.571915 10.637261 12.412109 10.291016 C 12.256743 9.9403308 11.9906 9.5751175 11.613281 9.1933594 C 11.462354 9.0379927 11.032513 8.6612387 10.322266 8.0664062 C 9.5631884 7.4227443 9.1079589 7.0039119 8.9570312 6.8085938 C 8.846055 6.6621052 8.7910156 6.5079948 8.7910156 6.34375 C 8.7910156 6.1795052 8.8680708 6.0310761 9.0234375 5.9023438 C 9.1788042 5.7691723 9.3788992 5.703125 9.6230469 5.703125 C 10.124659 5.703125 10.617706 6.0401084 11.101562 6.7148438 L 12.478516 5.4980469 C 11.963586 4.8987754 11.48492 4.484204 11.041016 4.2578125 C 10.60155 4.031421 10.138686 3.9199219 9.6503906 3.9199219 z M 19.244141 3.9199219 C 17.61501 3.9199219 16.291933 4.490024 15.275391 5.6308594 C 14.418654 6.5896938 13.990234 7.7174698 13.990234 9.0136719 C 13.990234 9.9591891 14.221933 10.839465 14.683594 11.65625 C 15.149694 12.473035 15.779629 13.10297 16.574219 13.546875 C 17.373247 13.986341 18.280333 14.207031 19.296875 14.207031 C 20.246831 14.207031 21.075441 14.005516 21.78125 13.601562 C 22.487059 13.197609 23.061955 12.609752 23.505859 11.841797 C 23.949764 11.073842 24.171875 10.262986 24.171875 9.40625 L 24.158203 8.9921875 L 19.230469 8.9921875 L 19.230469 10.744141 L 22.068359 10.744141 C 21.797577 11.321217 21.439999 11.744843 20.996094 12.015625 C 20.556628 12.286407 20.014756 12.421875 19.371094 12.421875 C 18.381186 12.421875 17.549735 12.094479 16.875 11.4375 C 16.200265 10.780521 15.861328 9.9787204 15.861328 9.0332031 C 15.861328 8.1187592 16.185883 7.3423479 16.833984 6.703125 C 17.486524 6.0639021 18.294539 5.7441406 19.257812 5.7441406 C 20.363135 5.7441406 21.330054 6.1835685 22.160156 7.0625 L 23.472656 5.7636719 C 22.873385 5.1155708 22.260671 4.658921 21.634766 4.3925781 C 20.893445 4.0774057 20.096438 3.9199219 19.244141 3.9199219 z M 41.923828 3.9199219 C 40.822944 3.9199219 39.964684 4.3621904 39.347656 5.25 C 38.792775 6.0579068 38.513672 7.3623417 38.513672 9.1601562 C 38.513672 10.44748 38.657307 11.437835 38.941406 12.134766 C 39.225505 12.831696 39.617528 13.351553 40.119141 13.693359 C 40.620753 14.035166 41.239681 14.207031 41.976562 14.207031 C 42.713444 14.207031 43.324738 14.03854 43.808594 13.701172 C 44.29245 13.359365 44.674885 12.825127 44.958984 12.101562 C 45.247523 11.377998 45.392578 10.367047 45.392578 9.0664062 C 45.392578 7.7790823 45.250896 6.7757664 44.966797 6.0566406 C 44.687137 5.3330758 44.286947 4.7959973 43.767578 4.4453125 C 43.252649 4.0946277 42.638515 3.9199219 41.923828 3.9199219 z M 49.568359 3.9199219 C 48.467475 3.9199219 47.607262 4.3621904 46.990234 5.25 C 46.435353 6.0579068 46.158203 7.3623417 46.158203 9.1601562 C 46.158203 10.44748 46.299885 11.437835 46.583984 12.134766 C 46.868083 12.831696 47.262059 13.351553 47.763672 13.693359 C 48.265284 14.035166 48.884212 14.207031 49.621094 14.207031 C 50.357976 14.207031 50.967316 14.03854 51.451172 13.701172 C 51.935028 13.359365 52.319417 12.825127 52.603516 12.101562 C 52.892054 11.377998 53.037109 10.367047 53.037109 9.0664062 C 53.037109 7.7790823 52.895427 6.7757664 52.611328 6.0566406 C 52.331668 5.3330758 51.931478 4.7959973 51.412109 4.4453125 C 50.89718 4.0946277 50.283046 3.9199219 49.568359 3.9199219 z M 57.210938 3.9199219 C 56.110054 3.9199219 55.251793 4.3621904 54.634766 5.25 C 54.079885 6.0579068 53.802734 7.3623417 53.802734 9.1601562 C 53.802734 10.44748 53.944417 11.437835 54.228516 12.134766 C 54.512615 12.831696 54.906591 13.351553 55.408203 13.693359 C 55.909816 14.035166 56.528743 14.207031 57.265625 14.207031 C 58.002507 14.207031 58.611847 14.03854 59.095703 13.701172 C 59.579559 13.359365 59.963948 12.825127 60.248047 12.101562 C 60.536585 11.377998 60.681641 10.367047 60.681641 9.0664062 C 60.681641 7.7790823 60.538005 6.7757664 60.253906 6.0566406 C 59.974246 5.3330758 59.576009 4.7959973 59.056641 4.4453125 C 58.541711 4.0946277 57.925624 3.9199219 57.210938 3.9199219 z M 32.734375 4.1660156 L 31.65625 5.9160156 L 33.673828 5.9160156 L 33.673828 13.960938 L 35.525391 13.960938 L 35.525391 4.1660156 L 32.734375 4.1660156 z M 41.970703 5.6894531 C 42.432364 5.6894531 42.807165 5.9335797 43.095703 6.421875 C 43.38868 6.9101703 43.535156 7.7986135 43.535156 9.0859375 C 43.535156 10.355505 43.372879 11.26117 43.048828 11.802734 C 42.782485 12.251078 42.423486 12.474609 41.970703 12.474609 C 41.500164 12.474609 41.115776 12.24007 40.818359 11.769531 C 40.525382 11.294553 40.378906 10.437713 40.378906 9.1992188 C 40.378906 8.2492624 40.443533 7.5278906 40.572266 7.0351562 C 40.700998 6.5424219 40.886712 6.1958509 41.130859 5.9960938 C 41.375007 5.7918975 41.655531 5.6894531 41.970703 5.6894531 z M 49.615234 5.6894531 C 50.076895 5.6894531 50.451696 5.9335797 50.740234 6.421875 C 51.033212 6.9101703 51.179688 7.7986135 51.179688 9.0859375 C 51.179688 10.355505 51.01741 11.26117 50.693359 11.802734 C 50.427016 12.251078 50.068017 12.474609 49.615234 12.474609 C 49.144695 12.474609 48.760307 12.24007 48.462891 11.769531 C 48.169913 11.294553 48.023438 10.437713 48.023438 9.1992188 C 48.023438 8.2492624 48.088064 7.5278906 48.216797 7.0351562 C 48.345529 6.5424219 48.531243 6.1958509 48.775391 5.9960938 C 49.019538 5.7918975 49.300062 5.6894531 49.615234 5.6894531 z M 57.257812 5.6894531 C 57.719474 5.6894531 58.094274 5.9335797 58.382812 6.421875 C 58.67579 6.9101703 58.822266 7.7986135 58.822266 9.0859375 C 58.822266 10.355505 58.661941 11.26117 58.337891 11.802734 C 58.071548 12.251078 57.710595 12.474609 57.257812 12.474609 C 56.787273 12.474609 56.402885 12.24007 56.105469 11.769531 C 55.812492 11.294553 55.666016 10.437713 55.666016 9.1992188 C 55.666016 8.2492624 55.730643 7.5278906 55.859375 7.0351562 C 55.988107 6.5424219 56.175774 6.1958509 56.419922 5.9960938 C 56.66407 5.7918975 56.94264 5.6894531 57.257812 5.6894531 z M 25.935547 9.5058594 L 25.935547 11.197266 L 29.318359 11.197266 L 29.318359 9.5058594 L 25.935547 9.5058594 z "
     id="text3711" />
</svg>
