<?xml version="1.0" encoding="UTF-8" standalone="no"?>
<svg
   xmlns:dc="http://purl.org/dc/elements/1.1/"
   xmlns:cc="http://creativecommons.org/ns#"
   xmlns:rdf="http://www.w3.org/1999/02/22-rdf-syntax-ns#"
   xmlns:svg="http://www.w3.org/2000/svg"
   xmlns="http://www.w3.org/2000/svg"
   xmlns:sodipodi="http://sodipodi.sourceforge.net/DTD/sodipodi-0.dtd"
   xmlns:inkscape="http://www.inkscape.org/namespaces/inkscape"
   width="83px"
   height="18px"
   viewBox="0 0 83 18"
   version="1.1"
   id="svg12"
   sodipodi:docname="system.svg"
   inkscape:version="0.92.2 (5c3e80d, 2017-08-06)">
  <metadata
     id="metadata16">
    <rdf:RDF>
      <cc:Work
         rdf:about="">
        <dc:format>image/svg+xml</dc:format>
        <dc:type
           rdf:resource="http://purl.org/dc/dcmitype/StillImage" />
        <dc:title>system</dc:title>
      </cc:Work>
    </rdf:RDF>
  </metadata>
  <sodipodi:namedview
     pagecolor="#ffffff"
     bordercolor="#666666"
     borderopacity="1"
     objecttolerance="10"
     gridtolerance="10"
     guidetolerance="10"
     inkscape:pageopacity="0"
     inkscape:pageshadow="2"
     inkscape:window-width="1680"
     inkscape:window-height="987"
     id="namedview14"
     showgrid="false"
     showguides="true"
     inkscape:guide-bbox="true"
     inkscape:zoom="5.3501573"
     inkscape:cx="10.661151"
     inkscape:cy="23.743815"
     inkscape:window-x="1672"
     inkscape:window-y="-8"
     inkscape:window-maximized="1"
     inkscape:current-layer="svg12">
    <sodipodi:guide
       position="1.0573248,3.7006369"
       orientation="0,1"
       id="guide3713"
       inkscape:locked="false" />
  </sodipodi:namedview>
  <!-- Generator: Sketch 45 (43475) - http://www.bohemiancoding.com/sketch -->
  <title
     id="title2">system</title>
  <desc
     id="desc4">Created with Sketch.</desc>
  <defs
     id="defs6">
    <linearGradient
       gradientTransform="translate(-328.19811,-126.63517)"
       x1="17"
       y1="128"
       x2="767"
       y2="128"
       id="gradient"
       gradientUnits="userSpaceOnUse">
      <stop
         style="stop-color:#f090a7;stop-opacity:1"
         offset="0"
         id="stop2" />
      <stop
         style="stop-color:#ef7b75;stop-opacity:1"
         offset="0.14947076"
         id="stop4" />
      <stop
         style="stop-color:#ee6e5e;stop-opacity:1"
         offset="0.25638369"
         id="stop6" />
      <stop
         style="stop-color:#fce72c;stop-opacity:1"
         offset="0.58937144"
         id="stop8" />
      <stop
         style="stop-color:#acdee4;stop-opacity:1"
         offset="0.81312746"
         id="stop10" />
      <stop
         style="stop-color:#a3ddf2;stop-opacity:1"
         offset="1"
         id="stop12" />
    </linearGradient>
  </defs>
  <g
     style="fill:none;fill-rule:evenodd;stroke:#867740;stroke-width:1;stroke-linecap:round"
     id="system">
    <path
       inkscape:connector-curvature="0"
       id="Shape"
       d="m 0.5,17.5 4,-17" />
  </g>
  <path
     style="font-style:normal;font-variant:normal;font-weight:bold;font-stretch:normal;font-size:13.63675594px;line-height:1.25;font-family:'Century Gothic';-inkscape-font-specification:'Century Gothic, Bold';font-variant-ligatures:normal;font-variant-caps:normal;font-variant-numeric:normal;font-feature-settings:normal;text-align:start;letter-spacing:0px;word-spacing:0px;writing-mode:lr-tb;text-anchor:start;fill:#ffffff;fill-opacity:1;stroke:none;stroke-width:0.92977881"
     d="M 21.554688 4.1054688 C 20.79561 4.1054688 20.156087 4.3495953 19.636719 4.8378906 C 19.121789 5.3217469 18.863281 5.9028569 18.863281 6.5820312 C 18.863281 7.0525704 19.019345 7.526975 19.330078 8.0019531 C 19.640811 8.4724922 20.32916 9.1416653 21.394531 10.011719 C 21.953851 10.468941 22.316224 10.809298 22.480469 11.03125 C 22.644714 11.253202 22.726562 11.475313 22.726562 11.697266 C 22.726562 11.941413 22.617904 12.155357 22.400391 12.341797 C 22.182877 12.528237 21.913361 12.623047 21.59375 12.623047 C 20.981161 12.623047 20.439289 12.189833 19.96875 11.324219 L 18.404297 12.269531 C 18.772738 13.001974 19.215539 13.539053 19.730469 13.880859 C 20.249837 14.222666 20.857757 14.392578 21.554688 14.392578 C 22.446936 14.392578 23.169728 14.13123 23.724609 13.607422 C 24.27949 13.083614 24.556641 12.420655 24.556641 11.617188 C 24.556641 11.204356 24.478165 10.824761 24.318359 10.478516 C 24.162993 10.127831 23.894897 9.7606644 23.517578 9.3789062 C 23.36665 9.2235396 22.93681 8.8487387 22.226562 8.2539062 C 21.467485 7.6102443 21.012256 7.1914119 20.861328 6.9960938 C 20.750352 6.8496052 20.695312 6.6935417 20.695312 6.5292969 C 20.695312 6.3650521 20.772368 6.2185761 20.927734 6.0898438 C 21.083101 5.9566723 21.283196 5.890625 21.527344 5.890625 C 22.028956 5.890625 22.522003 6.2276084 23.005859 6.9023438 L 24.384766 5.6835938 C 23.869836 5.0843222 23.389217 4.671704 22.945312 4.4453125 C 22.505847 4.218921 22.042983 4.1054688 21.554688 4.1054688 z M 7.9179688 4.3515625 L 6.2265625 14.146484 L 8.0429688 14.146484 L 9.1152344 7.9609375 L 11.173828 14.146484 L 12.818359 14.146484 L 14.902344 7.9609375 L 15.955078 14.146484 L 17.751953 14.146484 L 16.101562 4.3515625 L 14.302734 4.3515625 L 12.005859 11.183594 L 9.7421875 4.3515625 L 7.9179688 4.3515625 z M 25.695312 4.3515625 L 28.798828 9.09375 L 25.490234 14.146484 L 27.599609 14.146484 L 29.84375 10.705078 L 32.107422 14.146484 L 34.205078 14.146484 L 30.896484 9.09375 L 34.011719 4.3515625 L 31.914062 4.3515625 L 29.84375 7.4882812 L 27.792969 4.3515625 L 25.695312 4.3515625 z "
     id="text3711" />
</svg>
