<?xml version="1.0" encoding="UTF-8" standalone="no"?>
<svg
   xmlns:dc="http://purl.org/dc/elements/1.1/"
   xmlns:cc="http://creativecommons.org/ns#"
   xmlns:rdf="http://www.w3.org/1999/02/22-rdf-syntax-ns#"
   xmlns:svg="http://www.w3.org/2000/svg"
   xmlns="http://www.w3.org/2000/svg"
   xmlns:sodipodi="http://sodipodi.sourceforge.net/DTD/sodipodi-0.dtd"
   xmlns:inkscape="http://www.inkscape.org/namespaces/inkscape"
   width="83px"
   height="18px"
   viewBox="0 0 83 18"
   version="1.1"
   id="svg12"
   sodipodi:docname="system.svg"
   inkscape:version="0.92.2 (5c3e80d, 2017-08-06)">
  <metadata
     id="metadata16">
    <rdf:RDF>
      <cc:Work
         rdf:about="">
        <dc:format>image/svg+xml</dc:format>
        <dc:type
           rdf:resource="http://purl.org/dc/dcmitype/StillImage" />
        <dc:title>system</dc:title>
      </cc:Work>
    </rdf:RDF>
  </metadata>
  <sodipodi:namedview
     pagecolor="#ffffff"
     bordercolor="#666666"
     borderopacity="1"
     objecttolerance="10"
     gridtolerance="10"
     guidetolerance="10"
     inkscape:pageopacity="0"
     inkscape:pageshadow="2"
     inkscape:window-width="1680"
     inkscape:window-height="987"
     id="namedview14"
     showgrid="false"
     showguides="true"
     inkscape:guide-bbox="true"
     inkscape:zoom="5.3501573"
     inkscape:cx="41.781731"
     inkscape:cy="23.743815"
     inkscape:window-x="1672"
     inkscape:window-y="-8"
     inkscape:window-maximized="1"
     inkscape:current-layer="svg12">
    <sodipodi:guide
       position="1.0573248,3.7006369"
       orientation="0,1"
       id="guide3713"
       inkscape:locked="false" />
  </sodipodi:namedview>
  <!-- Generator: Sketch 45 (43475) - http://www.bohemiancoding.com/sketch -->
  <title
     id="title2">system</title>
  <desc
     id="desc4">Created with Sketch.</desc>
  <defs
     id="defs6">
    <linearGradient
       gradientTransform="translate(-328.19811,-126.63517)"
       x1="17"
       y1="128"
       x2="767"
       y2="128"
       id="gradient"
       gradientUnits="userSpaceOnUse">
      <stop
         style="stop-color:#f090a7;stop-opacity:1"
         offset="0"
         id="stop2" />
      <stop
         style="stop-color:#ef7b75;stop-opacity:1"
         offset="0.14947076"
         id="stop4" />
      <stop
         style="stop-color:#ee6e5e;stop-opacity:1"
         offset="0.25638369"
         id="stop6" />
      <stop
         style="stop-color:#fce72c;stop-opacity:1"
         offset="0.58937144"
         id="stop8" />
      <stop
         style="stop-color:#acdee4;stop-opacity:1"
         offset="0.81312746"
         id="stop10" />
      <stop
         style="stop-color:#a3ddf2;stop-opacity:1"
         offset="1"
         id="stop12" />
    </linearGradient>
  </defs>
  <rect
     style="fill:#000000;stroke-width:0.88099301"
     id="rect3707"
     width="110.1711"
     height="37.799362"
     x="-26.961782"
     y="-11.076435" />
  <path
     style="fill:#999999;fill-rule:evenodd;stroke:none;stroke-width:1"
     inkscape:connector-curvature="0"
     id="ATARI-2600-Copy"
     d="m 15.399627,39.232903 h -1.862 l -0.84,-2.366 H 9.4356273 l -0.84,2.366 h -1.862 l 3.4859997,-9.8 h 1.694 z m -3.318,-4.102 -1.022,-2.87 -1.008,2.87 z m 10.164,-3.962 h -2.772 v 8.064 h -1.792 v -8.064 h -2.772 v -1.736 h 7.336 z m 8.176,8.064 h -1.862 l -0.84,-2.366 h -3.262 l -0.84,2.366 h -1.862 l 3.486,-9.8 h 1.694 z m -3.318,-4.102 -1.022,-2.87 -1.008,2.87 z m 11.942,4.102 h -1.862 l -2.03,-3.64 h -1.82 v 3.64 h -1.792 v -9.8 h 3.584 c 2.249345,0 3.374,0.942657 3.374,2.828 0,0.700003 -0.144665,1.269331 -0.434,1.708 -0.289335,0.438669 -0.699997,0.821332 -1.232,1.148 z m -4.326,-8.302 h -1.386 v 2.982 h 1.316 c 0.756004,0 1.273999,-0.130665 1.554,-0.392 0.280001,-0.261335 0.42,-0.639331 0.42,-1.134 0,-0.494669 -0.135332,-0.860999 -0.406,-1.099 -0.270668,-0.238001 -0.769996,-0.357 -1.498,-0.357 z m 7.378,8.302 h -1.792 v -9.8 h 1.792 z m 10.836,0 h -5.992 c 1.138672,-1.642675 2.013664,-2.979662 2.625,-4.011 0.611336,-1.031339 0.984666,-1.731332 1.12,-2.1 0.135334,-0.368669 0.203,-0.697665 0.203,-0.987 0,-0.438669 -0.118999,-0.781665 -0.357,-1.029 -0.238001,-0.247335 -0.571665,-0.371 -1.001,-0.371 -0.849338,0 -1.600663,0.499328 -2.254,1.498 l -0.224,-1.61 c 0.177334,-0.326668 0.515664,-0.639332 1.015,-0.938 0.499336,-0.298668 1.10833,-0.448 1.827,-0.448 0.933338,0 1.614664,0.263664 2.044,0.791 0.429335,0.527336 0.644,1.140996 0.644,1.841 0,0.63467 -0.198331,1.385996 -0.595,2.254 -0.396669,0.868004 -1.052329,1.99266 -1.967,3.374 h 2.912 z m 4.662,0.196 c -0.924005,0 -1.663664,-0.300997 -2.219,-0.903 -0.555336,-0.602003 -0.833,-1.546994 -0.833,-2.835 0,-0.858671 0.156332,-1.693996 0.469,-2.506 0.312668,-0.812004 0.690664,-1.481664 1.134,-2.009 0.443336,-0.527336 0.900664,-0.949665 1.372,-1.267 0.471336,-0.317335 0.879665,-0.476 1.225,-0.476 l 1.176,0.7 c -0.289335,0 -0.695331,0.188998 -1.218,0.567 -0.522669,0.378002 -1.014998,0.87033 -1.477,1.477 -0.462002,0.60667 -0.725666,1.175997 -0.791,1.708 0.289335,-0.364002 0.830663,-0.546 1.624,-0.546 0.868004,0 1.577331,0.244998 2.128,0.735 0.550669,0.490002 0.826,1.187662 0.826,2.093 0,0.896004 -0.314997,1.663663 -0.945,2.303 -0.630003,0.639337 -1.453662,0.959 -2.471,0.959 z m 0.35,-4.634 c -0.494669,0 -0.895999,0.135332 -1.204,0.406 -0.308002,0.270668 -0.462,0.667331 -0.462,1.19 0,0.448002 0.156332,0.800332 0.469,1.057 0.312668,0.256668 0.655665,0.385 1.029,0.385 0.466669,0 0.846998,-0.165665 1.141,-0.497 0.294001,-0.331335 0.441,-0.730331 0.441,-1.197 0,-0.345335 -0.121332,-0.655665 -0.364,-0.931 -0.242668,-0.275335 -0.592664,-0.413 -1.05,-0.413 z m 8.512,4.634 c -1.213339,0 -2.188663,-0.452662 -2.926,-1.358 -0.737337,-0.905338 -1.106,-2.099993 -1.106,-3.584 0,-1.540008 0.401329,-2.799995 1.204,-3.78 0.802671,-0.980005 1.801327,-1.47 2.996,-1.47 1.166673,0 2.130329,0.468995 2.891,1.407 0.760671,0.938005 1.141,2.139659 1.141,3.605 0,1.558675 -0.382663,2.811662 -1.148,3.759 -0.765337,0.947338 -1.78266,1.421 -3.052,1.421 z m 0.14,-8.61 c -0.653337,0 -1.213331,0.31733 -1.68,0.952 -0.466669,0.63467 -0.7,1.539994 -0.7,2.716 0,1.120006 0.207665,1.955331 0.623,2.506 0.415335,0.550669 0.963663,0.826 1.645,0.826 0.728004,0 1.311331,-0.291664 1.75,-0.875 0.438669,-0.583336 0.658,-1.481661 0.658,-2.695 0,-1.101339 -0.221664,-1.94833 -0.665,-2.541 -0.443335,-0.59267 -0.986997,-0.889 -1.631,-0.889 z m 9.744,8.61 c -1.213339,0 -2.188663,-0.452662 -2.926,-1.358 -0.737337,-0.905338 -1.106,-2.099993 -1.106,-3.584 0,-1.540008 0.401329,-2.799995 1.204,-3.78 0.802671,-0.980005 1.801327,-1.47 2.996,-1.47 1.166673,0 2.130329,0.468995 2.891,1.407 0.760671,0.938005 1.141,2.139659 1.141,3.605 0,1.558675 -0.382663,2.811662 -1.148,3.759 -0.765337,0.947338 -1.78266,1.421 -3.052,1.421 z m 0.14,-8.61 c -0.653337,0 -1.213331,0.31733 -1.68,0.952 -0.466669,0.63467 -0.7,1.539994 -0.7,2.716 0,1.120006 0.207665,1.955331 0.623,2.506 0.415335,0.550669 0.963663,0.826 1.645,0.826 0.728004,0 1.311331,-0.291664 1.75,-0.875 0.438669,-0.583336 0.658,-1.481661 0.658,-2.695 0,-1.101339 -0.221664,-1.94833 -0.665,-2.541 -0.443335,-0.59267 -0.986997,-0.889 -1.631,-0.889 z" />
  <g
     style="fill:none;fill-rule:evenodd;stroke:#867740;stroke-width:1;stroke-linecap:round"
     id="system">
    <path
       inkscape:connector-curvature="0"
       id="Shape"
       d="m 0.5,17.5 4,-17" />
  </g>
  <text
     xml:space="preserve"
     style="font-style:normal;font-variant:normal;font-weight:bold;font-stretch:normal;font-size:13.63675594px;line-height:1.25;font-family:'Century Gothic';-inkscape-font-specification:'Century Gothic, Bold';font-variant-ligatures:normal;font-variant-caps:normal;font-variant-numeric:normal;font-feature-settings:normal;text-align:start;letter-spacing:0px;word-spacing:0px;writing-mode:lr-tb;text-anchor:start;fill:#ffffff;fill-opacity:1;stroke:none;stroke-width:0.92977881"
     x="5.8532104"
     y="14.147094"
     id="text3711"><tspan
       sodipodi:role="line"
       id="tspan3709"
       x="5.8532104"
       y="14.147094"
       style="fill:#ffffff;stroke-width:0.92977881">MSX</tspan></text>
</svg>
