<?xml version="1.0" encoding="UTF-8" standalone="no"?>
<svg
   xmlns:dc="http://purl.org/dc/elements/1.1/"
   xmlns:cc="http://creativecommons.org/ns#"
   xmlns:rdf="http://www.w3.org/1999/02/22-rdf-syntax-ns#"
   xmlns:svg="http://www.w3.org/2000/svg"
   xmlns="http://www.w3.org/2000/svg"
   xmlns:sodipodi="http://sodipodi.sourceforge.net/DTD/sodipodi-0.dtd"
   xmlns:inkscape="http://www.inkscape.org/namespaces/inkscape"
   width="49.493858"
   height="18.013866"
   viewBox="0 0 49.493858 18.013866"
   version="1.1"
   id="svg12"
   sodipodi:docname="system.svg"
   inkscape:version="0.92.2 (5c3e80d, 2017-08-06)">
  <metadata
     id="metadata16">
    <rdf:RDF>
      <cc:Work
         rdf:about="">
        <dc:format>image/svg+xml</dc:format>
        <dc:type
           rdf:resource="http://purl.org/dc/dcmitype/StillImage" />
        <dc:title>system</dc:title>
      </cc:Work>
    </rdf:RDF>
  </metadata>
  <sodipodi:namedview
     pagecolor="#ffffff"
     bordercolor="#666666"
     borderopacity="1"
     objecttolerance="10"
     gridtolerance="10"
     guidetolerance="10"
     inkscape:pageopacity="0"
     inkscape:pageshadow="2"
     inkscape:window-width="1680"
     inkscape:window-height="987"
     id="namedview14"
     showgrid="false"
     showguides="true"
     inkscape:guide-bbox="true"
     inkscape:zoom="5.3501573"
     inkscape:cx="10.66282"
     inkscape:cy="23.750748"
     inkscape:window-x="1672"
     inkscape:window-y="-8"
     inkscape:window-maximized="1"
     inkscape:current-layer="svg12"
     fit-margin-top="0"
     fit-margin-left="0"
     fit-margin-right="0"
     fit-margin-bottom="0">
    <sodipodi:guide
       position="1.0589944,3.7075701"
       orientation="0,1"
       id="guide3713"
       inkscape:locked="false" />
  </sodipodi:namedview>
  <!-- Generator: Sketch 45 (43475) - http://www.bohemiancoding.com/sketch -->
  <title
     id="title2">system</title>
  <desc
     id="desc4">Created with Sketch.</desc>
  <defs
     id="defs6">
    <linearGradient
       gradientTransform="translate(-328.19811,-126.63517)"
       x1="17"
       y1="128"
       x2="767"
       y2="128"
       id="gradient"
       gradientUnits="userSpaceOnUse">
      <stop
         style="stop-color:#f090a7;stop-opacity:1"
         offset="0"
         id="stop2" />
      <stop
         style="stop-color:#ef7b75;stop-opacity:1"
         offset="0.14947076"
         id="stop4" />
      <stop
         style="stop-color:#ee6e5e;stop-opacity:1"
         offset="0.25638369"
         id="stop6" />
      <stop
         style="stop-color:#fce72c;stop-opacity:1"
         offset="0.58937144"
         id="stop8" />
      <stop
         style="stop-color:#acdee4;stop-opacity:1"
         offset="0.81312746"
         id="stop10" />
      <stop
         style="stop-color:#a3ddf2;stop-opacity:1"
         offset="1"
         id="stop12" />
    </linearGradient>
  </defs>
  <g
     style="fill:none;fill-rule:evenodd;stroke:#867740;stroke-width:1;stroke-linecap:round"
     id="system"
     transform="translate(0.00166959,0.00693327)">
    <path
       inkscape:connector-curvature="0"
       id="Shape"
       d="m 0.5,17.5 4,-17" />
  </g>
  <path
     style="font-style:normal;font-variant:normal;font-weight:bold;font-stretch:normal;font-size:13.63675594px;line-height:1.25;font-family:'Century Gothic';-inkscape-font-specification:'Century Gothic, Bold';font-variant-ligatures:normal;font-variant-caps:normal;font-variant-numeric:normal;font-feature-settings:normal;text-align:start;letter-spacing:0px;word-spacing:0px;writing-mode:lr-tb;text-anchor:start;fill:#ffffff;fill-opacity:1;stroke:none;stroke-width:0.92977881"
     d="m 21.556358,4.1124021 c -0.759078,0 -1.398601,0.2441265 -1.917969,0.7324218 -0.51493,0.4838563 -0.773438,1.0649663 -0.773438,1.7441406 0,0.4705392 0.156064,0.9449438 0.466797,1.4199219 0.310733,0.4705391 0.999082,1.1397122 2.064453,2.0097656 0.55932,0.457222 0.921693,0.797579 1.085938,1.019531 0.164245,0.221952 0.246093,0.444063 0.246093,0.666016 0,0.244147 -0.108658,0.458091 -0.326171,0.644531 -0.217514,0.18644 -0.48703,0.28125 -0.806641,0.28125 -0.612589,0 -1.154461,-0.433214 -1.625,-1.298828 l -1.564453,0.945312 c 0.368441,0.732443 0.811242,1.269522 1.326172,1.611328 0.519368,0.341807 1.127288,0.511719 1.824219,0.511719 0.892248,0 1.61504,-0.261348 2.169921,-0.785156 0.554881,-0.523808 0.832032,-1.186767 0.832032,-1.990234 0,-0.412832 -0.07848,-0.792427 -0.238282,-1.138672 C 24.164663,10.134764 23.896567,9.7675977 23.519248,9.3858395 23.36832,9.2304729 22.93848,8.855672 22.228232,8.2608395 21.469155,7.6171776 21.013926,7.1983452 20.862998,7.0030271 20.752022,6.8565385 20.696982,6.700475 20.696982,6.5362302 c 0,-0.1642448 0.07706,-0.3107208 0.232422,-0.4394531 0.155367,-0.1331715 0.355462,-0.1992188 0.59961,-0.1992188 0.501612,0 0.994659,0.3369834 1.478515,1.0117188 l 1.378907,-1.21875 C 23.871506,5.0912555 23.390887,4.6786373 22.946982,4.4522458 22.507517,4.2258543 22.044653,4.1124021 21.556358,4.1124021 Z m 20.660156,0 c -0.963274,0 -1.752113,0.3039597 -2.369141,0.9121093 -0.612589,0.6037106 -0.943358,1.4337409 -0.992187,2.4902344 h 1.816406 c 0.01776,-0.5104905 0.161391,-0.9135213 0.427734,-1.2109375 0.266343,-0.2974162 0.598533,-0.4472656 0.998047,-0.4472656 0.395075,0 0.716257,0.1244602 0.964844,0.3730468 0.253026,0.2441477 0.380859,0.5562747 0.380859,0.9335938 0,0.3640019 -0.12304,0.7718265 -0.367187,1.2246094 C 42.83618,8.8361365 42.3513,9.4316279 41.618858,10.172949 l -3.03125,3.08789 v 0.892578 h 6.785156 v -1.724609 h -3.488282 l 1.097657,-1.158203 c 0.878931,-0.914444 1.48401,-1.7066567 1.8125,-2.3769529 0.332928,-0.6702963 0.498047,-1.2954379 0.498047,-1.8769532 0,-0.4882953 -0.136889,-0.968914 -0.41211,-1.4394531 C 44.609794,5.1022676 44.246001,4.7418481 43.788779,4.4932614 43.335996,4.2402357 42.811346,4.1124021 42.216514,4.1124021 Z M 7.9196384,4.3584958 6.2282321,14.153417 H 8.0446384 L 9.116904,7.9678708 11.175498,14.153417 h 1.644531 l 2.083985,-6.1855462 1.052734,6.1855462 h 1.796875 L 16.103232,4.3584958 H 14.304404 L 12.007529,11.190527 9.7438571,4.3584958 Z m 17.7773436,0 3.103516,4.7421875 -3.308594,5.0527337 h 2.109375 l 2.244141,-3.441406 2.263672,3.441406 h 2.097656 L 30.898154,9.1006833 34.013389,4.3584958 H 31.915732 L 29.84542,7.4952145 27.794639,4.3584958 Z"
     id="text3711"
     inkscape:connector-curvature="0" />
</svg>
