<?xml version="1.0" encoding="UTF-8" standalone="no"?>
<svg
   xmlns:dc="http://purl.org/dc/elements/1.1/"
   xmlns:cc="http://creativecommons.org/ns#"
   xmlns:rdf="http://www.w3.org/1999/02/22-rdf-syntax-ns#"
   xmlns:svg="http://www.w3.org/2000/svg"
   xmlns="http://www.w3.org/2000/svg"
   xmlns:sodipodi="http://sodipodi.sourceforge.net/DTD/sodipodi-0.dtd"
   xmlns:inkscape="http://www.inkscape.org/namespaces/inkscape"
   width="83px"
   height="18px"
   viewBox="0 0 83 18"
   version="1.1"
   id="svg12"
   sodipodi:docname="systemtemplate.svg"
   inkscape:version="0.92.2 (5c3e80d, 2017-08-06)">
  <metadata
     id="metadata16">
    <rdf:RDF>
      <cc:Work
         rdf:about="">
        <dc:format>image/svg+xml</dc:format>
        <dc:type
           rdf:resource="http://purl.org/dc/dcmitype/StillImage" />
        <dc:title>system</dc:title>
      </cc:Work>
    </rdf:RDF>
  </metadata>
  <sodipodi:namedview
     pagecolor="#ffffff"
     bordercolor="#666666"
     borderopacity="1"
     objecttolerance="10"
     gridtolerance="10"
     guidetolerance="10"
     inkscape:pageopacity="0"
     inkscape:pageshadow="2"
     inkscape:window-width="1680"
     inkscape:window-height="987"
     id="namedview14"
     showgrid="false"
     showguides="true"
     inkscape:guide-bbox="true"
     inkscape:zoom="5.3501573"
     inkscape:cx="72.902311"
     inkscape:cy="23.743815"
     inkscape:window-x="1672"
     inkscape:window-y="-8"
     inkscape:window-maximized="1"
     inkscape:current-layer="svg12">
    <sodipodi:guide
       position="1.0573248,3.7006369"
       orientation="0,1"
       id="guide3713"
       inkscape:locked="false" />
  </sodipodi:namedview>
  <!-- Generator: Sketch 45 (43475) - http://www.bohemiancoding.com/sketch -->
  <title
     id="title2">system</title>
  <desc
     id="desc4">Created with Sketch.</desc>
  <defs
     id="defs6">
    <linearGradient
       gradientTransform="translate(-328.19811,-126.63517)"
       x1="17"
       y1="128"
       x2="767"
       y2="128"
       id="gradient"
       gradientUnits="userSpaceOnUse">
      <stop
         style="stop-color:#f090a7;stop-opacity:1"
         offset="0"
         id="stop2" />
      <stop
         style="stop-color:#ef7b75;stop-opacity:1"
         offset="0.14947076"
         id="stop4" />
      <stop
         style="stop-color:#ee6e5e;stop-opacity:1"
         offset="0.25638369"
         id="stop6" />
      <stop
         style="stop-color:#fce72c;stop-opacity:1"
         offset="0.58937144"
         id="stop8" />
      <stop
         style="stop-color:#acdee4;stop-opacity:1"
         offset="0.81312746"
         id="stop10" />
      <stop
         style="stop-color:#a3ddf2;stop-opacity:1"
         offset="1"
         id="stop12" />
    </linearGradient>
  </defs>
  <rect
     style="fill:#000000;stroke-width:0.88099301"
     id="rect3707"
     width="110.1711"
     height="37.799362"
     x="-26.961782"
     y="-11.076435" />
  <path
     style="fill:#999999;fill-rule:evenodd;stroke:none;stroke-width:1"
     inkscape:connector-curvature="0"
     id="ATARI-2600-Copy"
     d="m 15.399627,39.232903 h -1.862 l -0.84,-2.366 H 9.4356273 l -0.84,2.366 h -1.862 l 3.4859997,-9.8 h 1.694 z m -3.318,-4.102 -1.022,-2.87 -1.008,2.87 z m 10.164,-3.962 h -2.772 v 8.064 h -1.792 v -8.064 h -2.772 v -1.736 h 7.336 z m 8.176,8.064 h -1.862 l -0.84,-2.366 h -3.262 l -0.84,2.366 h -1.862 l 3.486,-9.8 h 1.694 z m -3.318,-4.102 -1.022,-2.87 -1.008,2.87 z m 11.942,4.102 h -1.862 l -2.03,-3.64 h -1.82 v 3.64 h -1.792 v -9.8 h 3.584 c 2.249345,0 3.374,0.942657 3.374,2.828 0,0.700003 -0.144665,1.269331 -0.434,1.708 -0.289335,0.438669 -0.699997,0.821332 -1.232,1.148 z m -4.326,-8.302 h -1.386 v 2.982 h 1.316 c 0.756004,0 1.273999,-0.130665 1.554,-0.392 0.280001,-0.261335 0.42,-0.639331 0.42,-1.134 0,-0.494669 -0.135332,-0.860999 -0.406,-1.099 -0.270668,-0.238001 -0.769996,-0.357 -1.498,-0.357 z m 7.378,8.302 h -1.792 v -9.8 h 1.792 z m 10.836,0 h -5.992 c 1.138672,-1.642675 2.013664,-2.979662 2.625,-4.011 0.611336,-1.031339 0.984666,-1.731332 1.12,-2.1 0.135334,-0.368669 0.203,-0.697665 0.203,-0.987 0,-0.438669 -0.118999,-0.781665 -0.357,-1.029 -0.238001,-0.247335 -0.571665,-0.371 -1.001,-0.371 -0.849338,0 -1.600663,0.499328 -2.254,1.498 l -0.224,-1.61 c 0.177334,-0.326668 0.515664,-0.639332 1.015,-0.938 0.499336,-0.298668 1.10833,-0.448 1.827,-0.448 0.933338,0 1.614664,0.263664 2.044,0.791 0.429335,0.527336 0.644,1.140996 0.644,1.841 0,0.63467 -0.198331,1.385996 -0.595,2.254 -0.396669,0.868004 -1.052329,1.99266 -1.967,3.374 h 2.912 z m 4.662,0.196 c -0.924005,0 -1.663664,-0.300997 -2.219,-0.903 -0.555336,-0.602003 -0.833,-1.546994 -0.833,-2.835 0,-0.858671 0.156332,-1.693996 0.469,-2.506 0.312668,-0.812004 0.690664,-1.481664 1.134,-2.009 0.443336,-0.527336 0.900664,-0.949665 1.372,-1.267 0.471336,-0.317335 0.879665,-0.476 1.225,-0.476 l 1.176,0.7 c -0.289335,0 -0.695331,0.188998 -1.218,0.567 -0.522669,0.378002 -1.014998,0.87033 -1.477,1.477 -0.462002,0.60667 -0.725666,1.175997 -0.791,1.708 0.289335,-0.364002 0.830663,-0.546 1.624,-0.546 0.868004,0 1.577331,0.244998 2.128,0.735 0.550669,0.490002 0.826,1.187662 0.826,2.093 0,0.896004 -0.314997,1.663663 -0.945,2.303 -0.630003,0.639337 -1.453662,0.959 -2.471,0.959 z m 0.35,-4.634 c -0.494669,0 -0.895999,0.135332 -1.204,0.406 -0.308002,0.270668 -0.462,0.667331 -0.462,1.19 0,0.448002 0.156332,0.800332 0.469,1.057 0.312668,0.256668 0.655665,0.385 1.029,0.385 0.466669,0 0.846998,-0.165665 1.141,-0.497 0.294001,-0.331335 0.441,-0.730331 0.441,-1.197 0,-0.345335 -0.121332,-0.655665 -0.364,-0.931 -0.242668,-0.275335 -0.592664,-0.413 -1.05,-0.413 z m 8.512,4.634 c -1.213339,0 -2.188663,-0.452662 -2.926,-1.358 -0.737337,-0.905338 -1.106,-2.099993 -1.106,-3.584 0,-1.540008 0.401329,-2.799995 1.204,-3.78 0.802671,-0.980005 1.801327,-1.47 2.996,-1.47 1.166673,0 2.130329,0.468995 2.891,1.407 0.760671,0.938005 1.141,2.139659 1.141,3.605 0,1.558675 -0.382663,2.811662 -1.148,3.759 -0.765337,0.947338 -1.78266,1.421 -3.052,1.421 z m 0.14,-8.61 c -0.653337,0 -1.213331,0.31733 -1.68,0.952 -0.466669,0.63467 -0.7,1.539994 -0.7,2.716 0,1.120006 0.207665,1.955331 0.623,2.506 0.415335,0.550669 0.963663,0.826 1.645,0.826 0.728004,0 1.311331,-0.291664 1.75,-0.875 0.438669,-0.583336 0.658,-1.481661 0.658,-2.695 0,-1.101339 -0.221664,-1.94833 -0.665,-2.541 -0.443335,-0.59267 -0.986997,-0.889 -1.631,-0.889 z m 9.744,8.61 c -1.213339,0 -2.188663,-0.452662 -2.926,-1.358 -0.737337,-0.905338 -1.106,-2.099993 -1.106,-3.584 0,-1.540008 0.401329,-2.799995 1.204,-3.78 0.802671,-0.980005 1.801327,-1.47 2.996,-1.47 1.166673,0 2.130329,0.468995 2.891,1.407 0.760671,0.938005 1.141,2.139659 1.141,3.605 0,1.558675 -0.382663,2.811662 -1.148,3.759 -0.765337,0.947338 -1.78266,1.421 -3.052,1.421 z m 0.14,-8.61 c -0.653337,0 -1.213331,0.31733 -1.68,0.952 -0.466669,0.63467 -0.7,1.539994 -0.7,2.716 0,1.120006 0.207665,1.955331 0.623,2.506 0.415335,0.550669 0.963663,0.826 1.645,0.826 0.728004,0 1.311331,-0.291664 1.75,-0.875 0.438669,-0.583336 0.658,-1.481661 0.658,-2.695 0,-1.101339 -0.221664,-1.94833 -0.665,-2.541 -0.443335,-0.59267 -0.986997,-0.889 -1.631,-0.889 z" />
  <g
     style="fill:none;fill-rule:evenodd;stroke:#867740;stroke-width:1;stroke-linecap:round"
     id="system">
    <path
       inkscape:connector-curvature="0"
       id="Shape"
       d="m 0.5,17.5 4,-17" />
  </g>
  <text
     xml:space="preserve"
     style="font-style:normal;font-variant:normal;font-weight:bold;font-stretch:normal;font-size:13.63675594px;line-height:1.25;font-family:'Century Gothic';-inkscape-font-specification:'Century Gothic, Bold';font-variant-ligatures:normal;font-variant-caps:normal;font-variant-numeric:normal;font-feature-settings:normal;text-align:start;letter-spacing:0px;word-spacing:0px;writing-mode:lr-tb;text-anchor:start;fill:#666666;fill-opacity:1;stroke:none;stroke-width:0.92977881;"
     x="7.1615834"
     y="52.650635"
     id="text3711"><tspan
       sodipodi:role="line"
       id="tspan3709"
       x="7.1615834"
       y="52.650635"
       style="stroke-width:0.92977881;fill:#666666;">ATARI 7800</tspan></text>
  <g
     id="g43"
     transform="matrix(0.0646893,0,0,0.0646893,27.766672,8.9712401)">
    <path
       id="path17"
       style="fill:#ffffff;fill-opacity:1;fill-rule:nonzero;stroke:none;stroke-width:12;marker:none"
       d="m -186.01061,5.5835767 c 3.71845,2.59571 7.78647,4.9139903 12.5,6.2812503 l -23.09375,33.96875 -17.53125,-32.46875 h 15.9375 c 3.25857,0 6.86409,-0.77491 9.5,-3.4062503 1.29278,-1.29054 2.14926,-2.78682 2.6875,-4.375 z m -97.1875,-131.2187467 c -15.51136,0 -26.98776,6.40929 -34.03125,14.75 -7.04348,8.34071 -9.96875,18.190996 -9.96875,26.249997 v 55 0.03125 c 0.0267,9.90047 3.73247,20.0217097 10.25,28.0312497 5.84182,7.17915 14.27748,12.6519003 24.25,13.7187503 l 68.375,113.312503 1.75,2.90625 h 3.375 44 3.3125 l 1.78125,-2.8125 44.90625,-71.375003 v 58.187503 0.0312 c 0.0272,3.65846 0.79029,7.5277 3.375,10.78125 2.58471,3.2536 7.0143,5.18755 11.625,5.18755 H 36.801892 c 5.33693,0.0136 10.48864,-1.65572 15.125,-3.875 1.34813,-0.64531 2.49122,-1.43157 3.71875,-2.15625 2.13125,3.15904 6.25346,6.03125 11.15625,6.03125 h 37.937498 c 0.0212,2e-4 0.0413,-1.2e-4 0.0625,0 4.85893,0.0285 9.27974,-1.99746 12.03125,-5.125 0.40798,-0.46374 0.72138,-0.97404 1.0625,-1.46875 6.37233,3.7398 14.15049,6.59375 21.90625,6.59375 h 84 0.375 l 0.34375,-0.0312 c 13.77693,-1.694 19.20727,-4.3281 22.875,-6.59375 2.78779,3.93987 6.65557,6.62495 11.40625,6.62495 h 38 c 3.42593,0 6.19946,-1.02323 9.40625,-3.21875 3.20679,-2.19552 6.59375,-6.34148 6.59375,-11.78125 V 51.364827 h 25 c 1.55181,0.003 3.59724,0.68115 4.9375,1.78125 1.34026,1.1001 2.0625,2.26434 2.0625,4.21875 v 56.000003 0.0312 c 0.029,3.73503 1.40972,6.47471 3.75,9.34375 2.34028,2.86904 6.25522,5.625 11.25,5.625 h 39 c 4.36711,0 7.58593,-2.07433 10.1875,-4.625 2.60157,-2.55062 4.8125,-5.89462 4.8125,-10.37495 v -77.000003 -0.375 l -0.0625,-0.375 c -0.71194,-5.64348 -1.18054,-13.00076 -6.8125,-22.25 h 4.5625 c 0.10645,0.006 0.20629,-0.005 0.3125,0 11.45483,0.4937 21.51969,-5.7586603 28.75,-13.53125034 7.29735,-7.84465996 12.25,-17.28070966 12.25,-26.46874966 v -58 -0.03125 c -0.024,-9.200648 -3.88953,-19.108327 -11.15625,-27.093747 -7.26672,-7.98543 -18.25324,-13.875 -31.84375,-13.875 h -85 c -9.22392,0 -17.21526,3.44731 -23.6875,7.8125 -0.41682,-0.86018 -0.76297,-1.72611 -1.375,-2.5625 -1.96534,-2.68579 -5.56729,-5.25 -9.9375,-5.25 h -86 c -7.84818,0 -14.17527,2.2862 -19,4.96875 v -4.96875 h -6 -136.999998 -6 v 6 70.999997 h -19 -0.0312 -0.0312 c -1.17282,0.01463 -3.5761,-0.515742 -4.96875,-1.4375 -1.39275,-0.921758 -1.9688502,-1.534584 -1.9688502,-3.5625 v -57.999997 c 0,-8.47117 -7.42899,-14 -15,-14 H -43.198108 c -4.49214,0 -8.22165,2.25709 -10.6875,4.96875 -0.37428,0.41159 -0.57549,0.90908 -0.90625,1.34375 -5.44744,-3.27181 -11.72654,-6.3125 -19.40625,-6.3125 h -90.000002 c -8.951,0 -16.18305,3.73421 -21.84375,7.8125 -0.59274,-1.34974 -1.47666,-2.54294 -2.59375,-3.71875 -2.13533,-2.24758 -5.56241,-4.09375 -9.5625,-4.09375 z"
       inkscape:connector-curvature="0" />
    <path
       id="path19"
       style="fill:#000000;stroke:none"
       d="m -191.19811,-105.63517 c 5.03896,-4.897 14.81238,-14 27,-14 h 90.000002 c 8.26007,0 15.15201,4.70907 22,9 0.30654,-4.0134 4.02528,-9 9,-9 h 37.9999998 c 4.54132002,0 9,3.4397 9,8 v 57.999997 c 0,8.078728 8.1249702,11.060814 13.0000002,11 h 25 V -119.63517 H 178.80189 v 11 c 3.03817,-2.93843 10.91233,-11 25,-11 h 86 c 4.45466,0 6.80129,4.77291 7,8 v 5 c 5.99872,-6.2835 16.4007,-13 28,-13 h 85 c 23.79869,0 36.96113,20.123696 37,34.999997 v 58 c 0,13.36803 -16.73695,34.9852797 -35,33.9999997 h -17 c 12.26955,13.2897203 11.97081,20.8417503 13,29.0000003 v 77.000003 c 0,4.26708 -5.00698,9 -9,9 h -39 c -5.6316,0 -8.97773,-6.13558 -9,-9 V 57.364827 c 0,-7.58846 -6.98069,-11.98893 -13,-12 h -31 v 68.000003 c 0,6.18323 -7.25959,9 -10,9 h -38 c -3.52417,0 -7.27554,-3.17338 -9,-9 -6.53122,3.10417 -6.07005,6.54943 -26,9 h -84 c -8.39973,0 -19.37565,-5.23308 -25,-10 0,4.99511 -3.25762,10.06457 -10,10 H 66.801892 c -6.53762,0 -8,-6.47598 -8,-10 -3.76499,4.52683 -14.13225,10.01999 -22,10 H -110.19811 c -6.50449,0 -8.95858,-4.41804 -9,-10 V 33.364827 l -56,89.000003 h -44 l -70,-116.0000033 c -18.9562,0 -31.955,-19.3000797 -32,-35.9999997 v -55 c 0,-12.999182 10.13553,-34.999997 38,-34.999997 h 85 c 4.5788,0 7,3.91644 7,6 z m 28,112.9999967 c -11.93598,0 -21.45289,-6.95054004 -28,-14 v 6.99999996 c -0.12339,4.94049004 -2.19863,7.00000004 -7,7.00000004 h -26 l 27,50.0000003 z"
       inkscape:connector-curvature="0" />
    <path
       id="path21"
       style="fill:url(#gradient);fill-opacity:1;stroke:none"
       d="M 57.801892,4.3648267 V 35.364827 h -88 c -10.05794,0 -9.49577,10 0,10 0,0 38.6666698,0 58,0 45.18719,0 45.17487,67.000003 0,67.000003 -30.3333302,0 -91,0 -91,0 V 82.364827 c 0,0 57.9999998,0 87,0 10.41245,0 9.70504,-10 0,-10 -18.0000002,0 -54,0 -54,0 -46.43524,0 -46.27094,-68.0000003 0,-68.0000003 29.33332982,0 88,0 88,0 z m 201.999998,0 h 103 c 18.48665,0 34.95736,14.3530803 35,34.0000003 v 74.000003 h -37 V 48.364827 c 0,-10.68121 -6.35284,-12.84706 -14,-13 h -50 v 77.000003 h -37 z m -97,30.1208503 c -9.83041,0.058 -14,6.2301 -14,13.87915 v 20 c 0,8.30825 7.14371,14 14,14 h 41 c 4.86138,0 13,-3.29133 13,-14 v -20 c 0,-6.72657 -4.09803,-14.17333 -13,-14.12085 z m -14,-30.1208503 h 69 c 21.90116,0 36,14.9163503 36,33.0000003 v 40 c 0,28.364333 -24.50627,35.000003 -36,35.000003 h -69 c -25.91779,0 -37,-20.853083 -37,-35.000003 v -40 c 0,-23.03088 20.61071,-33.0000003 37,-33.0000003 z m -80.999998,0 H 104.80189 V 112.36483 H 67.801892 Z m -178.000002,0 h 37.000002 V 112.36483 h -37.000002 z m -168,0 h 41 l 40,70.0000003 47,-70.0000003 h 34 l -64,108.0000033 h -33.61745 z M 51.801892,-109.63517 H 168.80189 v 26.999997 H 87.801892 v 10 h 80.999998 v 27 H 87.801892 c 0,9.927198 7.29151,14 14.999998,14 h 66 V -2.6351733 H 83.801892 c -19.04385,0 -32.13927,-15.8089597 -32.09509,-32.9999997 z m -94,0 h 35.9999998 v 63.999997 c 0,9.194281 6.92928002,14.095439 15,14 H 47.801892 V -2.6351733 H -8.1981082 c -15.8993298,0 -33.9999998,-7.14682 -33.9999998,-32.9999997 z m 331.999998,-0.002 h -81 c -23.30529,0 -32.94673,21.437406 -33,32.999997 v 40 c 0,25.94127 21.34031,35.1516997 33,34.9999997 h 81 V -31.636973 h -62 c -4.41167,0 -15,-3.266902 -15,-13 v -21 c 0,-10.003606 7.53074,-14 15,-14 h 62 z m 58,30.122688 c -9.83041,0.05795 -14,6.230103 -14,13.879149 v 20 c 0,8.308252 7.14371,14 14,14 h 41 c 4.86138,0 13,-3.29133 13,-14 v -20 c 0,-6.726572 -4.09803,-14.173328 -13,-14.12085 z m -14,-30.120848 h 69 c 21.90116,0 36,14.916353 36,32.999997 v 40 c 0,28.3642897 -24.50627,34.9999597 -36,34.9999597 h -69 c -25.91779,0 -37,-20.8530797 -37,-35.0000027 v -40 c 0,-23.030883 20.61071,-33.000004 37,-33.000004 z m -474,30.120808 c -9.83041,0.05795 -14,6.230103 -14,13.879149 v 20 c 0,8.308252 7.14371,14 14,14 h 41.000002 c 4.86138,0 13,-3.29133 13,-14 v -20 c 0,-6.726572 -4.09803,-14.173328 -13,-14.12085 z m -14,-30.120848 h 69.000002 c 21.90116,0 36,14.916353 36,32.999997 v 40 c 0,28.3643297 -24.50627,34.9999997 -36,34.9999997 h -69.000002 c -25.91779,0 -36,-20.8530797 -36,-34.9999997 v -40 c 0,-23.030883 19.61071,-32.999997 36,-32.999997 z m -43,0 h -81 c -23.30529,0 -32.94673,21.437406 -33,32.999997 v 40 c 0,25.94127 21.34031,35.1516997 33,34.9999997 h 81 V -31.635173 h -63 c -4.41167,0 -15,-3.266902 -15,-13 v -21 c 0,-10.003606 7.53074,-14 15,-14 h 63 z"
       inkscape:connector-curvature="0" />
  </g>
</svg>
