<?xml version="1.0" encoding="UTF-8" standalone="no"?>
<svg
   xmlns:dc="http://purl.org/dc/elements/1.1/"
   xmlns:cc="http://creativecommons.org/ns#"
   xmlns:rdf="http://www.w3.org/1999/02/22-rdf-syntax-ns#"
   xmlns:svg="http://www.w3.org/2000/svg"
   xmlns="http://www.w3.org/2000/svg"
   xmlns:sodipodi="http://sodipodi.sourceforge.net/DTD/sodipodi-0.dtd"
   xmlns:inkscape="http://www.inkscape.org/namespaces/inkscape"
   width="83px"
   height="18px"
   viewBox="0 0 83 18"
   version="1.1"
   id="svg12"
   sodipodi:docname="system.svg"
   inkscape:version="0.92.2 (5c3e80d, 2017-08-06)">
  <metadata
     id="metadata16">
    <rdf:RDF>
      <cc:Work
         rdf:about="">
        <dc:format>image/svg+xml</dc:format>
        <dc:type
           rdf:resource="http://purl.org/dc/dcmitype/StillImage" />
      </cc:Work>
    </rdf:RDF>
  </metadata>
  <sodipodi:namedview
     pagecolor="#ffffff"
     bordercolor="#666666"
     borderopacity="1"
     objecttolerance="10"
     gridtolerance="10"
     guidetolerance="10"
     inkscape:pageopacity="0"
     inkscape:pageshadow="2"
     inkscape:window-width="1303"
     inkscape:window-height="731"
     id="namedview14"
     showgrid="false"
     showguides="true"
     inkscape:guide-bbox="true"
     inkscape:zoom="5.3501573"
     inkscape:cx="20.497441"
     inkscape:cy="12.326814"
     inkscape:window-x="0"
     inkscape:window-y="0"
     inkscape:window-maximized="0"
     inkscape:current-layer="svg12">
    <sodipodi:guide
       position="1.0573248,3.7006369"
       orientation="0,1"
       id="guide3713"
       inkscape:locked="false" />
  </sodipodi:namedview>
  <!-- Generator: Sketch 45 (43475) - http://www.bohemiancoding.com/sketch -->
  <title
     id="title2">system</title>
  <desc
     id="desc4">Created with Sketch.</desc>
  <defs
     id="defs6" />
  <g
     id="Page-1"
     stroke-width="1"
     stroke="none"
     fill-rule="evenodd"
     fill="none">
    <g
       id="system"
       stroke-linecap="round"
       stroke="#867740">
      <path
         d="M0.5,17.5 L4.5,0.5"
         id="Shape" />
    </g>
  </g>
  <g
     aria-label="ATARI 7800"
     style="font-style:normal;font-variant:normal;font-weight:bold;font-stretch:normal;font-size:13.63675594px;line-height:1.25;font-family:'Century Gothic';-inkscape-font-specification:'Century Gothic, Bold';font-variant-ligatures:normal;font-variant-caps:normal;font-variant-numeric:normal;font-feature-settings:normal;text-align:start;letter-spacing:0px;word-spacing:0px;writing-mode:lr-tb;text-anchor:start;fill:#ffffff;fill-opacity:1;stroke:none;stroke-width:0.92977881"
     id="text3711">
    <path
       id="path3731"
       style="stroke-width:0.92977881"
       d="m 75.699208,3.9190572 q 1.07203,0 1.844425,0.5260272 0.779053,0.5260272 1.198543,1.6113745 0.426148,1.0786887 0.426148,3.0096746 0,1.9509615 -0.432807,3.0363085 -0.426149,1.085348 -1.151933,1.598058 -0.725784,0.506051 -1.831107,0.506051 -1.105323,0 -1.857742,-0.51271 -0.752419,-0.51271 -1.178567,-1.558106 -0.426149,-1.045396 -0.426149,-2.9763815 0,-2.6967217 0.832322,-3.9085819 0.925541,-1.3317144 2.576867,-1.3317144 z m 0.04661,1.7711802 q -0.472759,0 -0.83898,0.3062943 -0.366221,0.2996358 -0.55932,1.0387373 -0.193099,0.7391015 -0.193099,2.1640359 0,1.8577421 0.439466,2.5702091 0.446124,0.705808 1.151933,0.705808 0.679174,0 1.078689,-0.672515 0.486076,-0.812346 0.486076,-2.7166978 0,-1.9309859 -0.439466,-2.6634289 Q 76.43831,5.6902374 75.745818,5.6902374 Z M 68.055169,3.9190572 q 1.07203,0 1.844424,0.5260272 0.779053,0.5260272 1.198543,1.6113745 0.426149,1.0786887 0.426149,3.0096746 0,1.9509615 -0.432807,3.0363085 -0.426149,1.085348 -1.151933,1.598058 -0.725784,0.506051 -1.831107,0.506051 -1.105323,0 -1.857742,-0.51271 -0.752419,-0.51271 -1.178567,-1.558106 -0.426149,-1.045396 -0.426149,-2.9763815 0,-2.6967217 0.832321,-3.9085819 0.925542,-1.3317144 2.576868,-1.3317144 z m 0.04661,1.7711802 q -0.472759,0 -0.83898,0.3062943 -0.366222,0.2996358 -0.55932,1.0387373 -0.193099,0.7391015 -0.193099,2.1640359 0,1.8577421 0.439466,2.5702091 0.446124,0.705808 1.151933,0.705808 0.679174,0 1.078689,-0.672515 0.486075,-0.812346 0.486075,-2.7166978 0,-1.9309859 -0.439465,-2.6634289 Q 68.79427,5.6902374 68.101779,5.6902374 Z m -5.65313,2.9630646 q 0.665857,0.4261486 1.02542,1.0986644 0.366222,0.6658576 0.366222,1.4449106 0,0.845638 -0.426149,1.564764 -0.41949,0.719126 -1.131957,1.085347 -0.712467,0.359563 -1.81779,0.359563 -1.185226,0 -1.884376,-0.346245 -0.69915,-0.352905 -1.118641,-1.058713 -0.41949,-0.712468 -0.41949,-1.604716 0,-0.772395 0.332929,-1.4049591 Q 57.714404,9.1526949 58.38692,8.653302 57.947454,8.2071777 57.721063,7.7077848 57.50133,7.2017333 57.50133,6.6424132 q 0,-0.7657358 0.366221,-1.3916416 0.37288,-0.6325644 1.038738,-0.9788101 0.665857,-0.3529043 1.53813,-0.3529043 0.858956,0 1.511496,0.3529043 0.65254,0.3529043 1.02542,1.0054444 0.379538,0.6458815 0.379538,1.3916416 0,0.5260272 -0.199757,0.9788101 Q 62.968018,8.093982 62.448649,8.653302 Z M 60.384492,5.7168717 q -0.459442,0 -0.759078,0.3062943 -0.292977,0.2996357 -0.292977,0.7723944 0,0.4727586 0.312953,0.7923701 0.312953,0.3196114 0.772395,0.3196114 0.472758,0 0.772394,-0.3129529 0.306294,-0.3129529 0.306294,-0.8123458 0,-0.4727586 -0.306294,-0.7657358 -0.306294,-0.2996357 -0.805687,-0.2996357 z m 0.07324,3.9285576 q -0.672516,0 -1.131957,0.4128317 -0.459442,0.406173 -0.459442,0.972151 0,0.592613 0.432807,1.005445 0.432808,0.406173 1.138616,0.406173 0.712467,0 1.131958,-0.379539 0.426148,-0.386197 0.426148,-0.992127 0,-0.60593 -0.439466,-1.012103 Q 61.116931,9.6454293 60.457732,9.6454293 Z M 49.797364,4.1654243 h 6.425522 v 0.9788102 l -4.421292,9.0623165 -1.578082,-0.765736 3.675532,-7.5241862 h -4.10168 z m -7.450945,0 h 1.851083 v 9.7947597 h -1.851083 z m -7.650699,0 h 1.977596 q 1.624692,0 2.310525,0.2929772 0.692491,0.2863186 1.111981,0.9588344 0.41949,0.6725158 0.41949,1.5913988 0,0.965493 -0.4661,1.618033 -0.459441,0.6458815 -1.391641,0.9788102 l 2.317183,4.3547061 H 38.937231 L 36.733243,9.8118936 H 36.56012 v 4.1482904 h -1.8644 z m 1.8644,3.8286791 h 0.585955 q 0.892249,0 1.225177,-0.2330501 0.339587,-0.23305 0.339587,-0.7723943 0,-0.3196115 -0.166464,-0.5526615 Q 38.377911,6.1962889 38.098251,6.0964103 37.818591,5.9898731 37.072831,5.9898731 H 36.56012 Z M 27.457853,4.1654243 h 1.891035 l 3.768751,9.7947597 h -1.937644 l -0.765736,-2.017547 h -3.995143 l -0.799029,2.017547 h -1.937644 z m 0.958834,2.5968432 -1.30508,3.3625785 h 2.603502 z M 17.782947,4.1654243 h 5.413419 v 1.837766 H 21.411869 V 13.960184 H 19.520834 V 6.0031903 h -1.737887 z m -6.145862,0 h 1.891034 l 3.768752,9.7947597 H 15.359227 L 14.593491,11.942637 H 10.598347 L 9.7993188,13.960184 H 7.8616742 Z m 0.958834,2.5968432 -1.30508,3.3625785 h 2.603502 z" />
  </g>
</svg>
