<?xml version="1.0" encoding="UTF-8" standalone="no"?>
<svg
   xmlns:dc="http://purl.org/dc/elements/1.1/"
   xmlns:cc="http://creativecommons.org/ns#"
   xmlns:rdf="http://www.w3.org/1999/02/22-rdf-syntax-ns#"
   xmlns:svg="http://www.w3.org/2000/svg"
   xmlns="http://www.w3.org/2000/svg"
   xmlns:sodipodi="http://sodipodi.sourceforge.net/DTD/sodipodi-0.dtd"
   xmlns:inkscape="http://www.inkscape.org/namespaces/inkscape"
   width="83px"
   height="18px"
   viewBox="0 0 83 18"
   version="1.1"
   id="svg12"
   sodipodi:docname="system.svg"
   inkscape:version="0.92.2 (5c3e80d, 2017-08-06)">
  <metadata
     id="metadata16">
    <rdf:RDF>
      <cc:Work
         rdf:about="">
        <dc:format>image/svg+xml</dc:format>
        <dc:type
           rdf:resource="http://purl.org/dc/dcmitype/StillImage" />
      </cc:Work>
    </rdf:RDF>
  </metadata>
  <sodipodi:namedview
     pagecolor="#ffffff"
     bordercolor="#666666"
     borderopacity="1"
     objecttolerance="10"
     gridtolerance="10"
     guidetolerance="10"
     inkscape:pageopacity="0"
     inkscape:pageshadow="2"
     inkscape:window-width="1680"
     inkscape:window-height="987"
     id="namedview14"
     showgrid="false"
     inkscape:zoom="5.3501573"
     inkscape:cx="52.439442"
     inkscape:cy="9.8651193"
     inkscape:window-x="1672"
     inkscape:window-y="-8"
     inkscape:window-maximized="1"
     inkscape:current-layer="svg12" />
  <!-- Generator: Sketch 45 (43475) - http://www.bohemiancoding.com/sketch -->
  <title
     id="title2">system</title>
  <desc
     id="desc4">Created with Sketch.</desc>
  <defs
     id="defs6">
    <linearGradient
       gradientTransform="translate(-1099.9667,-331.07008)"
       id="SVGID_3_"
       gradientUnits="userSpaceOnUse"
       x1="1234.163"
       y1="394.53601"
       x2="1234.163"
       y2="394.53601">
      <stop
         offset="0"
         stop-color="#f57e25"
         id="stop20" />
      <stop
         offset="1"
         stop-color="#fcd660"
         id="stop22" />
    </linearGradient>
    <linearGradient
       gradientTransform="translate(-1099.9667,-331.07008)"
       id="SVGID_2_"
       gradientUnits="userSpaceOnUse"
       x1="1249.984"
       y1="50.264999"
       x2="1249.984"
       y2="779.62097">
      <stop
         offset=".483"
         stop-color="#f57e25"
         id="stop13" />
      <stop
         offset="1"
         stop-color="#fcd660"
         id="stop15" />
    </linearGradient>
    <linearGradient
       gradientTransform="translate(-1099.9667,-331.07008)"
       id="SVGID_1_"
       gradientUnits="userSpaceOnUse"
       x1="1931.251"
       y1="394.53601"
       x2="1931.251"
       y2="394.53601">
      <stop
         offset="0"
         stop-color="#f57e25"
         id="stop6" />
      <stop
         offset="1"
         stop-color="#fcd660"
         id="stop8" />
    </linearGradient>
  </defs>
  <g
     style="fill:none;fill-rule:evenodd;stroke:#867740;stroke-width:1;stroke-linecap:round"
     id="system">
    <path
       inkscape:connector-curvature="0"
       id="Shape"
       d="m 0.5,17.5 4,-17" />
  </g>
  <g
     id="g121"
     transform="matrix(0.02170726,0,0,0.02170726,29.961031,7.4713384)">
    <path
       id="path4"
       d="m 927.63328,20.429915 -401.9,444.900005 h -952.80003 l -16.1,-15.5 -135.2,-130.1 -245.4,-235.600005 -228.19995,-218.999995 c -10.9,-10.3 -22.9,-21.8 -32.1,-33.2 -36.6,-47.1 -6.8,-109 55.7,-109 h 218.39995 c 8,0 15.5,-0.6 22.9,0.6 12.6,1.1 23.5,4.6 33.8,9.7 10.9,-6.3 24.7,-10.3 40.2,-10.3 h 196.6 c 20.6,-0.6 37.8,2.9 52.7,9.7 10.3,-6.3 23.5,-9.7 39,-9.7 h 98 c 9.2,1.1 18.3,3.4 25.8,7.5 9.7,-4.6 21.8,-7.5 34.4,-7.5 h 63.1 c 20.1,0 36.1,-1.1 54.5,8.6 0.6,0.6 1.1,0.6 2.3,1.1 10.9,-6.3 24.1,-9.7 39.6,-9.7 h 224.10003 c 21.2,0 39.6,0 57.9,10.9 12.6,-6.9 26.9,-10.9 43,-10.9 h 213.8 c 20.6,0 39.6,0.6 56.2,10.9 13.8,-6.9 28.7,-10.9 44.7,-10.9 h 225.9 c 20.6,0 40.1,0.6 56.8,10.3 5.2,-2.9 10.3,-5.2 16.1,-6.9 16.1,-4.6 30.4,-4 46.4,-4 h 76.2 c 13.8,0 26.9,2.3 37.8,8.6 9.20002,-4.6 18.90002,-7.5 29.80002,-8 h 106.1 c 9.2,0 18.3,1.1 26.9,4.6 1.1,-6.3 3.4,-12.6 7.5,-18.3 l 2.9,-4.6 4,-4 c 16.1,-17.8 33.2,-33.2 59.6,-31.5 h 80.8 c 22.4,0 44.7,4.6 61.9,18.3 37.3,29.8 36.1,80.8 10.3,116.9 -9.7,14.3 -25.2,25.8 -41.8,33.2 -2.3,11.5 -8.6,22.9 -19.5,32.1 -6.3,5.7 -12.6,11.5 -18.3,17.2 -17.2,16.099995 -32.7,18.899995 -54.5,18.899995 h -105.5 c -12.6,0 -24.1,-1.7 -35,-6.299995 l -76.2,76.199995 c -25.2,25.8000001 -53.90002,44.7 -92.30002,45.3 h -0.6 c -3.5,-0.5 -6.9,-0.5 -10.3,-0.5"
       inkscape:connector-curvature="0" />
    <path
       id="path11"
       d="M 831.33328,63.429915 Z"
       class="st0"
       style="fill:url(#SVGID_1_)"
       inkscape:connector-curvature="0" />
    <path
       id="path18"
       d="m 237.43328,445.22992 h -118.1 l 49.9,-420.200005 c 0.6,-6.9 3.4,-10.9 12,-10.9 h 86.6 c 20.1,-2.9 24.1,-16.0999999 25.8,-31 h -78 c -28.1,1.1 -41.3,-17.2 -39.6,-41.8 l 9.2,-127.799995 c 1.7,-20.1 16.1,-33.8 32.7,-33.8 h 213.8 c 22.9,0 39.6,-2.3 28.7,31.5 l -11.5,34.4 c -1.7,5.2 -3.4,9.7 -5.7,14.3 -5.7,10.3 -16.1,12 -26.9,12 h -112.9 c -5.7,0 -7.5,0.6 -8.6,4 l -5.7,21.8 c -1.1,4.599995 2.3,3.999995 9.2,3.999995 h 84.3 c 6.9,0 13.8,-0.6 20.1,1.1 12,2.9 16.6,10.3 17.8,20.1 1.1,8 -1.7,14.3 -4.6,22.9 z m 416.1,-432.800005 h -83.7 c -8,0 -12,-2.8999999 -12,-6.8999999 l -1.1,-17.2000001 c -0.6,-4 7.5,-3.4 13.8,-3.4 h 100.3 l 32.1,-49.3 13.8,-22.9 c 4,-6.3 0.6,-13.199995 -6.9,-13.199995 h -83.8 c -7.5,0 -11.5,-2.9 -11.5,-6.9 l -1.1,-17.8 c 0,-3.4 8,-2.9 13.8,-2.9 h 90 c 11.5,0 22.9,-1.7 31.5,-12 4,-4.6 6.9,-9.2 10.3,-14.3 l 21.2,-34.4 c 20.6,-33.8 2.3,-31.5 -21.8,-31.5 h -225.3 c -17.8,0 -36.7,13.8 -43.6,33.8 -67.6,193.7999951 -87.7,249.899995 -87.7,249.899995 -17.8,44.700005 -51,124.400005 -153.1,381.800005 h 125 z m -828.90003,-30.4 h 29.2 c 15.5,0 21.2,-11.5 18.9,-25.2 -9.2,-42.4 -17.8,-84.799995 -26.9,-127.299995 -12,-53.9 -17.2,-49.3 -48.7,-49.3 h -63.1 c -8.6,0 -13.2,0.6 -10.9,8.6 8.6,32.1 18.3,62.5 27.5,95.2 2.9,7.5 0.6,11.5 -6.3,11.5 h -21.8 c -4,1.1 -6.3,-2.3 -8.6,-8.6 -13.8,-34.4 -24.1,-68.2 -37.8,-102.6 -0.6,-2.9 -3.4,-4 -8,-4.6 h -92.3 c -17.8,0 -16.6,13.2 -10.3,26.4 l 69.9,146.199995 c 8,17.2 17.2,29.8 36.7,29.8 h 32.1 l 186.9,463.200005 h 59.600031 z M 1128.2333,-220.27008 h -101.5 c -5.2,0.6 -9.2,1.7 -10.9,4.6 -29.20002,34.4 -55.60002,68.2 -84.80002,102.6 -5.7,6.3 -9.2,9.7 -13.2,8.6 h -24.1 c -7.5,0 -8,-4 -2.3,-11.5 23.5,-32.7 47,-63.1 70.5,-95.2 5.7,-8 1.1,-8.6 -8,-8.6 h -76.2 c -35,0 -38.4,-4.6 -74,49.3 -28.1,42.4 -55.6,84.799995 -83.7,127.299995 -8.6,13.8 -6.9,25.2 10.3,25.2 h 39.6 l -334.8,463.200005 h 65.4 l 400.7,-463.200005 h 35.5 c 21.2,0 36.7,-12.6 52.7,-29.8 L 1127.0333,-193.37008 c 13.8,-13.7 20.7,-26.9 1.2,-26.9 z m 207.5,-51.6 c -6.9,-5.2 -18.3,-6.3 -26.9,-6.3 h -82.5 c -4,0 -8.6,5.2 -16.1,14.3 -4,7.5 -1.1,10.9 8,10.3 h 71.1 c 11.5,4 1.7,25.2 -9.2,24.1 h -43.6 c -9.2,0 -17.2,0.6 -26.4,3.4 -14.9,5.2 -21.8,12 -29.8,19.5 -16.6,17.2 -32.7,35 -49.3,52.2 -4.6,4.6 -5.2,9.2 -1.7,12 2.3,1.7 6.3,2.3 12.6,2.3 h 105.5 c 6.9,0 10.9,1.1 16.1,-4 6.3,-6.3 13.2,-12.6 19.5,-18.9 4.6,-4 4.6,-7.5 -3.4,-8 h -49.9 c -25.2,0 -6.9,-28.7 6.9,-29.8 h 56.8 c 14.9,-0.6 33.8,-9.2 42.4,-21.8 10.2,-14.9 14.3,-37.3 -0.1,-49.3 z m -2071.20005,100.9 c -40.7,-55 -50.4,-49.3 -74,-49.3 h -218.29995 c -17.8,0 -21.8,13.2 -12,26.4 5.7,7.5 17.8,19.5 26.9,28.7 l 473.49995,474.7 c 51.6,52.2 96.3,96.9 135.3,135.9 h 133 c -35,-46.4 -76.2,-101.5 -126.1,-167.4 -44.8,-59.2 -272.4,-359.600005 -338.3,-449 z m 283.8,0 c -26.9,-57.3 -49.9,-49.3 -73.4,-49.3 h -187.4 c -17.8,0 -21.2,13.2 -10.9,26.9 l 39,53.9 c 6.9,9.2 16.1,8.6 27.5,8.6 h 98.6 c 4.6,0 33.8,-2.9 43.6,13.8 l 65.9,109.9999951 c 8.6,13.8 0,15.5 -13.8,15.5 -12,-0.6 -17.8,-0.6 -21.8,-8.00000003 -20.1,-29.80000007 -37.8,-60.20000007 -57.9,-90.00000007 -7.5,-11.499995 -11.5,-11.999995 -24.1,-11.999995 -25.8,0 -51,0.6 -76.2,0.6 -6.3,0 -9.2,4.599995 -6.9,8.599995 2.3,4.6 2.9,5.7 7.5,11.5 l 380.6,526.300005 h 104.9 z m 568.10003,-49.3 h -223.60003 c -17.8,0 -23.5,14.3 -20.1,33.2 l 24.1,138.699995 c 1.1,7.5 1.1,12.6 6.300031,18.3 5.2,6.3 13.2,10.3 25.8,9.7 h 122.7 c 2.3,15.5000001 1.7,29.2000001 -18.3,32.1 h -115.3 c -8,0 -10.3,4.6 -9.2,11.5 l 74,421.900005 H 103.23328 l 40.1,-501.000005 c 0.6,-8.6 1.7,-15.5 -1.1,-23.5 -3.4,-9.7 -10.3,-17.8 -23.5,-20.6 -7.5,-1.699995 -14.3,-1.099995 -21.199999,-1.099995 H 0.63328059 c -7.49999999,0 -10.29999999,0.6 -10.29999999,-4 v -19.5 c 0,-3.4 1.7,-4 7.5,-4 H 125.03328 c 10.9,0 21.2,-1.7 24.1,-12.6 1.1,-5.2 1.7,-9.7 2.3,-14.9 l 2.9,-32.1 c 2.8,-34.4 -14.4,-32.1 -37.9,-32.1 z"
       class="st1"
       style="fill:url(#SVGID_2_)"
       inkscape:connector-curvature="0" />
    <path
       id="path25"
       d="M 134.23328,63.429915 Z"
       class="st2"
       style="fill:url(#SVGID_3_)"
       inkscape:connector-curvature="0" />
    <path
       id="path27"
       d="m -810.36675,-126.87008 c 4.3,0 6.4,0.4 14.4,10.1 l 93.8,113.3999951 c 5.3,6.4 1.8,10.6 -1.2,10.6 -6.9,0.1 -18.1,0.3 -24.9,0.2 -7.7,-0.1 -9.8,-1.8 -14.6,-7.10000003 l -104.1,-116.09999507 c -4.7,-5.2 -4.1,-11.1 4.5,-11.2 z"
       inkscape:connector-curvature="0" />
  </g>
</svg>
