<?xml version="1.0" encoding="UTF-8" standalone="no"?>
<svg
   xmlns:dc="http://purl.org/dc/elements/1.1/"
   xmlns:cc="http://creativecommons.org/ns#"
   xmlns:rdf="http://www.w3.org/1999/02/22-rdf-syntax-ns#"
   xmlns:svg="http://www.w3.org/2000/svg"
   xmlns="http://www.w3.org/2000/svg"
   xmlns:xlink="http://www.w3.org/1999/xlink"
   xmlns:sodipodi="http://sodipodi.sourceforge.net/DTD/sodipodi-0.dtd"
   xmlns:inkscape="http://www.inkscape.org/namespaces/inkscape"
   width="63.852158"
   height="18.013866"
   viewBox="0 0 63.852158 18.013866"
   version="1.1"
   id="svg12"
   sodipodi:docname="system.svg"
   inkscape:version="0.92.2 (5c3e80d, 2017-08-06)">
  <metadata
     id="metadata16">
    <rdf:RDF>
      <cc:Work
         rdf:about="">
        <dc:format>image/svg+xml</dc:format>
        <dc:type
           rdf:resource="http://purl.org/dc/dcmitype/StillImage" />
        <dc:title>system</dc:title>
      </cc:Work>
    </rdf:RDF>
  </metadata>
  <sodipodi:namedview
     pagecolor="#ffffff"
     bordercolor="#666666"
     borderopacity="1"
     objecttolerance="10"
     gridtolerance="10"
     guidetolerance="10"
     inkscape:pageopacity="0"
     inkscape:pageshadow="2"
     inkscape:window-width="1680"
     inkscape:window-height="987"
     id="namedview14"
     showgrid="false"
     showguides="true"
     inkscape:guide-bbox="true"
     inkscape:zoom="5.3501573"
     inkscape:cx="41.7834"
     inkscape:cy="23.750748"
     inkscape:window-x="1672"
     inkscape:window-y="-8"
     inkscape:window-maximized="1"
     inkscape:current-layer="svg12"
     fit-margin-top="0"
     fit-margin-left="0"
     fit-margin-right="0"
     fit-margin-bottom="0">
    <sodipodi:guide
       position="1.0589944,3.7075701"
       orientation="0,1"
       id="guide3713"
       inkscape:locked="false" />
  </sodipodi:namedview>
  <!-- Generator: Sketch 45 (43475) - http://www.bohemiancoding.com/sketch -->
  <title
     id="title2">system</title>
  <desc
     id="desc4">Created with Sketch.</desc>
  <defs
     id="defs6">
    <linearGradient
       gradientTransform="translate(-328.19811,-126.63517)"
       x1="17"
       y1="128"
       x2="767"
       y2="128"
       id="gradient"
       gradientUnits="userSpaceOnUse">
      <stop
         style="stop-color:#f090a7;stop-opacity:1"
         offset="0"
         id="stop2" />
      <stop
         style="stop-color:#ef7b75;stop-opacity:1"
         offset="0.14947076"
         id="stop4" />
      <stop
         style="stop-color:#ee6e5e;stop-opacity:1"
         offset="0.25638369"
         id="stop6" />
      <stop
         style="stop-color:#fce72c;stop-opacity:1"
         offset="0.58937144"
         id="stop8" />
      <stop
         style="stop-color:#acdee4;stop-opacity:1"
         offset="0.81312746"
         id="stop10" />
      <stop
         style="stop-color:#a3ddf2;stop-opacity:1"
         offset="1"
         id="stop12" />
    </linearGradient>
    <linearGradient
       inkscape:collect="always"
       xlink:href="#gradient"
       id="linearGradient62"
       gradientUnits="userSpaceOnUse"
       gradientTransform="translate(-328.19811,-126.63517)"
       x1="17"
       y1="128"
       x2="767"
       y2="128" />
  </defs>
  <g
     style="fill:none;fill-rule:evenodd;stroke:#867740;stroke-width:1;stroke-linecap:round"
     id="system"
     transform="translate(0.00166959,0.00693327)">
    <path
       inkscape:connector-curvature="0"
       id="Shape"
       d="m 0.5,17.5 4,-17" />
  </g>
  <g
     id="g43"
     transform="matrix(0.0646893,0,0,0.0646893,27.768342,8.9781734)">
    <path
       id="path17"
       style="fill:#ffffff;fill-opacity:1;fill-rule:nonzero;stroke:none;stroke-width:12;marker:none"
       d="m -186.01061,5.5835767 c 3.71845,2.59571 7.78647,4.9139903 12.5,6.2812503 l -23.09375,33.96875 -17.53125,-32.46875 h 15.9375 c 3.25857,0 6.86409,-0.77491 9.5,-3.4062503 1.29278,-1.29054 2.14926,-2.78682 2.6875,-4.375 z m -97.1875,-131.2187467 c -15.51136,0 -26.98776,6.40929 -34.03125,14.75 -7.04348,8.34071 -9.96875,18.190996 -9.96875,26.249997 v 55 0.03125 c 0.0267,9.90047 3.73247,20.0217097 10.25,28.0312497 5.84182,7.17915 14.27748,12.6519003 24.25,13.7187503 l 68.375,113.312503 1.75,2.90625 h 3.375 44 3.3125 l 1.78125,-2.8125 44.90625,-71.375003 v 58.187503 0.0312 c 0.0272,3.65846 0.79029,7.5277 3.375,10.78125 2.58471,3.2536 7.0143,5.18755 11.625,5.18755 H 36.801892 c 5.33693,0.0136 10.48864,-1.65572 15.125,-3.875 1.34813,-0.64531 2.49122,-1.43157 3.71875,-2.15625 2.13125,3.15904 6.25346,6.03125 11.15625,6.03125 h 37.937498 c 0.0212,2e-4 0.0413,-1.2e-4 0.0625,0 4.85893,0.0285 9.27974,-1.99746 12.03125,-5.125 0.40798,-0.46374 0.72138,-0.97404 1.0625,-1.46875 6.37233,3.7398 14.15049,6.59375 21.90625,6.59375 h 84 0.375 l 0.34375,-0.0312 c 13.77693,-1.694 19.20727,-4.3281 22.875,-6.59375 2.78779,3.93987 6.65557,6.62495 11.40625,6.62495 h 38 c 3.42593,0 6.19946,-1.02323 9.40625,-3.21875 3.20679,-2.19552 6.59375,-6.34148 6.59375,-11.78125 V 51.364827 h 25 c 1.55181,0.003 3.59724,0.68115 4.9375,1.78125 1.34026,1.1001 2.0625,2.26434 2.0625,4.21875 v 56.000003 0.0312 c 0.029,3.73503 1.40972,6.47471 3.75,9.34375 2.34028,2.86904 6.25522,5.625 11.25,5.625 h 39 c 4.36711,0 7.58593,-2.07433 10.1875,-4.625 2.60157,-2.55062 4.8125,-5.89462 4.8125,-10.37495 v -77.000003 -0.375 l -0.0625,-0.375 c -0.71194,-5.64348 -1.18054,-13.00076 -6.8125,-22.25 h 4.5625 c 0.10645,0.006 0.20629,-0.005 0.3125,0 11.45483,0.4937 21.51969,-5.7586603 28.75,-13.53125034 7.29735,-7.84465996 12.25,-17.28070966 12.25,-26.46874966 v -58 -0.03125 c -0.024,-9.200648 -3.88953,-19.108327 -11.15625,-27.093747 -7.26672,-7.98543 -18.25324,-13.875 -31.84375,-13.875 h -85 c -9.22392,0 -17.21526,3.44731 -23.6875,7.8125 -0.41682,-0.86018 -0.76297,-1.72611 -1.375,-2.5625 -1.96534,-2.68579 -5.56729,-5.25 -9.9375,-5.25 h -86 c -7.84818,0 -14.17527,2.2862 -19,4.96875 v -4.96875 h -6 -136.999998 -6 v 6 70.999997 h -19 -0.0312 -0.0312 c -1.17282,0.01463 -3.5761,-0.515742 -4.96875,-1.4375 -1.39275,-0.921758 -1.9688502,-1.534584 -1.9688502,-3.5625 v -57.999997 c 0,-8.47117 -7.42899,-14 -15,-14 H -43.198108 c -4.49214,0 -8.22165,2.25709 -10.6875,4.96875 -0.37428,0.41159 -0.57549,0.90908 -0.90625,1.34375 -5.44744,-3.27181 -11.72654,-6.3125 -19.40625,-6.3125 h -90.000002 c -8.951,0 -16.18305,3.73421 -21.84375,7.8125 -0.59274,-1.34974 -1.47666,-2.54294 -2.59375,-3.71875 -2.13533,-2.24758 -5.56241,-4.09375 -9.5625,-4.09375 z"
       inkscape:connector-curvature="0" />
    <path
       id="path19"
       style="fill:#000000;stroke:none"
       d="m -191.19811,-105.63517 c 5.03896,-4.897 14.81238,-14 27,-14 h 90.000002 c 8.26007,0 15.15201,4.70907 22,9 0.30654,-4.0134 4.02528,-9 9,-9 h 37.9999998 c 4.54132002,0 9,3.4397 9,8 v 57.999997 c 0,8.078728 8.1249702,11.060814 13.0000002,11 h 25 V -119.63517 H 178.80189 v 11 c 3.03817,-2.93843 10.91233,-11 25,-11 h 86 c 4.45466,0 6.80129,4.77291 7,8 v 5 c 5.99872,-6.2835 16.4007,-13 28,-13 h 85 c 23.79869,0 36.96113,20.123696 37,34.999997 v 58 c 0,13.36803 -16.73695,34.9852797 -35,33.9999997 h -17 c 12.26955,13.2897203 11.97081,20.8417503 13,29.0000003 v 77.000003 c 0,4.26708 -5.00698,9 -9,9 h -39 c -5.6316,0 -8.97773,-6.13558 -9,-9 V 57.364827 c 0,-7.58846 -6.98069,-11.98893 -13,-12 h -31 v 68.000003 c 0,6.18323 -7.25959,9 -10,9 h -38 c -3.52417,0 -7.27554,-3.17338 -9,-9 -6.53122,3.10417 -6.07005,6.54943 -26,9 h -84 c -8.39973,0 -19.37565,-5.23308 -25,-10 0,4.99511 -3.25762,10.06457 -10,10 H 66.801892 c -6.53762,0 -8,-6.47598 -8,-10 -3.76499,4.52683 -14.13225,10.01999 -22,10 H -110.19811 c -6.50449,0 -8.95858,-4.41804 -9,-10 V 33.364827 l -56,89.000003 h -44 l -70,-116.0000033 c -18.9562,0 -31.955,-19.3000797 -32,-35.9999997 v -55 c 0,-12.999182 10.13553,-34.999997 38,-34.999997 h 85 c 4.5788,0 7,3.91644 7,6 z m 28,112.9999967 c -11.93598,0 -21.45289,-6.95054004 -28,-14 v 6.99999996 c -0.12339,4.94049004 -2.19863,7.00000004 -7,7.00000004 h -26 l 27,50.0000003 z"
       inkscape:connector-curvature="0" />
    <path
       id="path21"
       style="fill:url(#linearGradient62);fill-opacity:1;stroke:none"
       d="M 57.801892,4.3648267 V 35.364827 h -88 c -10.05794,0 -9.49577,10 0,10 0,0 38.6666698,0 58,0 45.18719,0 45.17487,67.000003 0,67.000003 -30.3333302,0 -91,0 -91,0 V 82.364827 c 0,0 57.9999998,0 87,0 10.41245,0 9.70504,-10 0,-10 -18.0000002,0 -54,0 -54,0 -46.43524,0 -46.27094,-68.0000003 0,-68.0000003 29.33332982,0 88,0 88,0 z m 201.999998,0 h 103 c 18.48665,0 34.95736,14.3530803 35,34.0000003 v 74.000003 h -37 V 48.364827 c 0,-10.68121 -6.35284,-12.84706 -14,-13 h -50 v 77.000003 h -37 z m -97,30.1208503 c -9.83041,0.058 -14,6.2301 -14,13.87915 v 20 c 0,8.30825 7.14371,14 14,14 h 41 c 4.86138,0 13,-3.29133 13,-14 v -20 c 0,-6.72657 -4.09803,-14.17333 -13,-14.12085 z m -14,-30.1208503 h 69 c 21.90116,0 36,14.9163503 36,33.0000003 v 40 c 0,28.364333 -24.50627,35.000003 -36,35.000003 h -69 c -25.91779,0 -37,-20.853083 -37,-35.000003 v -40 c 0,-23.03088 20.61071,-33.0000003 37,-33.0000003 z m -80.999998,0 H 104.80189 V 112.36483 H 67.801892 Z m -178.000002,0 h 37.000002 V 112.36483 h -37.000002 z m -168,0 h 41 l 40,70.0000003 47,-70.0000003 h 34 l -64,108.0000033 h -33.61745 z M 51.801892,-109.63517 H 168.80189 v 26.999997 H 87.801892 v 10 h 80.999998 v 27 H 87.801892 c 0,9.927198 7.29151,14 14.999998,14 h 66 V -2.6351733 H 83.801892 c -19.04385,0 -32.13927,-15.8089597 -32.09509,-32.9999997 z m -94,0 h 35.9999998 v 63.999997 c 0,9.194281 6.92928002,14.095439 15,14 H 47.801892 V -2.6351733 H -8.1981082 c -15.8993298,0 -33.9999998,-7.14682 -33.9999998,-32.9999997 z m 331.999998,-0.002 h -81 c -23.30529,0 -32.94673,21.437406 -33,32.999997 v 40 c 0,25.94127 21.34031,35.1516997 33,34.9999997 h 81 V -31.636973 h -62 c -4.41167,0 -15,-3.266902 -15,-13 v -21 c 0,-10.003606 7.53074,-14 15,-14 h 62 z m 58,30.122688 c -9.83041,0.05795 -14,6.230103 -14,13.879149 v 20 c 0,8.308252 7.14371,14 14,14 h 41 c 4.86138,0 13,-3.29133 13,-14 v -20 c 0,-6.726572 -4.09803,-14.173328 -13,-14.12085 z m -14,-30.120848 h 69 c 21.90116,0 36,14.916353 36,32.999997 v 40 c 0,28.3642897 -24.50627,34.9999597 -36,34.9999597 h -69 c -25.91779,0 -37,-20.8530797 -37,-35.0000027 v -40 c 0,-23.030883 20.61071,-33.000004 37,-33.000004 z m -474,30.120808 c -9.83041,0.05795 -14,6.230103 -14,13.879149 v 20 c 0,8.308252 7.14371,14 14,14 h 41.000002 c 4.86138,0 13,-3.29133 13,-14 v -20 c 0,-6.726572 -4.09803,-14.173328 -13,-14.12085 z m -14,-30.120848 h 69.000002 c 21.90116,0 36,14.916353 36,32.999997 v 40 c 0,28.3643297 -24.50627,34.9999997 -36,34.9999997 h -69.000002 c -25.91779,0 -36,-20.8530797 -36,-34.9999997 v -40 c 0,-23.030883 19.61071,-32.999997 36,-32.999997 z m -43,0 h -81 c -23.30529,0 -32.94673,21.437406 -33,32.999997 v 40 c 0,25.94127 21.34031,35.1516997 33,34.9999997 h 81 V -31.635173 h -63 c -4.41167,0 -15,-3.266902 -15,-13 v -21 c 0,-10.003606 7.53074,-14 15,-14 h 63 z"
       inkscape:connector-curvature="0" />
  </g>
</svg>
